<svg xmlns="http://www.w3.org/2000/svg" xmlns:svg="http://www.w3.org/2000/svg" id="svg4279" width="40" height="40" version="1.1" viewBox="0 0 40 40"><metadata id="metadata4318"/><title id="title4281">App_Calc</title><desc id="desc4283">Created with Sketch.</desc><path id="rect4177-7" d="m 1,0 38,0 c 0.552285,0 1,0.44771525 1,1 l 0,38 c 0,0.552285 -0.447715,1 -1,1 L 1,40 C 0.44771525,40 0,39.552285 0,39 L 0,1 C 0,0.44771525 0.44771525,0 1,0 Z" style="fill:#06609a;fill-rule:nonzero;stroke:none;stroke-width:1;fill-opacity:1"/><rect style="fill:#fff;fill-rule:nonzero;stroke:none;stroke-width:1" id="rect4175-2-68-3" width="5.699" height="2.235" x="6.254" y="10.542"/><rect style="fill:#fff;fill-rule:nonzero;stroke:none;stroke-width:1" id="rect4175-2-68-3-copy-3" width="5.699" height="3.911" x="6.254" y="14.732"/><rect style="fill:#fff;fill-rule:nonzero;stroke:none;stroke-width:1" id="rect4175-2-68-3-copy-7" width="5.699" height="3.911" x="6.254" y="20.598"/><rect style="fill:#fff;fill-rule:nonzero;stroke:none;stroke-width:1" id="rect4175-2-68-3-copy-11" width="5.699" height="3.911" x="6.254" y="26.464"/><rect style="fill:#fff;fill-rule:nonzero;stroke:none;stroke-width:1" id="rect4299" width="5.699" height="2.235" x="13.852" y="10.542"/><rect style="fill:#fff;fill-rule:nonzero;stroke:none;stroke-width:1" id="rect4175-2-68-3-copy-4" width="5.699" height="3.911" x="13.852" y="14.732"/><rect style="fill:#fff;fill-rule:nonzero;stroke:none;stroke-width:1" id="rect4175-2-68-3-copy-8" width="5.699" height="3.911" x="13.852" y="20.598"/><rect style="fill:#fff;fill-rule:nonzero;stroke:none;stroke-width:1" id="rect4175-2-68-3-copy-12" width="5.699" height="3.911" x="13.852" y="26.464"/><rect style="fill:#fff;fill-rule:nonzero;stroke:none;stroke-width:1" id="rect4175-2-68-3-copy" width="5.699" height="2.235" x="21.45" y="10.542"/><rect style="fill:#fff;fill-rule:nonzero;stroke:none;stroke-width:1" id="rect4175-2-68-3-copy-5" width="5.699" height="3.911" x="21.45" y="14.732"/><rect style="fill:#fff;fill-rule:nonzero;stroke:none;stroke-width:1" id="rect4175-2-68-3-copy-2" width="5.699" height="2.235" x="29.048" y="10.542"/><rect style="fill:#fff;fill-rule:nonzero;stroke:none;stroke-width:1" id="rect4175-2-68-3-copy-6" width="5.699" height="3.911" x="29.048" y="14.732"/><path style="color:#000;clip-rule:nonzero;display:inline;overflow:visible;visibility:visible;opacity:1;isolation:auto;mix-blend-mode:normal;color-interpolation:sRGB;color-interpolation-filters:linearRGB;solid-color:#000;solid-opacity:1;fill:#06609a;fill-opacity:1;fill-rule:nonzero;stroke:none;stroke-width:1;stroke-linecap:butt;stroke-linejoin:round;stroke-miterlimit:4;stroke-dasharray:none;stroke-dashoffset:0;stroke-opacity:1;color-rendering:auto;image-rendering:auto;shape-rendering:auto;text-rendering:auto;enable-background:accumulate" id="path5002-3" d="m 28.052039,16.257397 a 11.402232,11.402232 0 0 0 -11.40165,11.40165 11.402232,11.402232 0 0 0 11.40165,11.40165 11.402232,11.402232 0 0 0 11.40165,-11.40165 11.402232,11.402232 0 0 0 -11.40165,-11.40165 z m 0,3.685176 a 7.7166618,7.7166618 0 0 1 7.716474,7.716474 7.7166618,7.7166618 0 0 1 -7.716474,7.716474 7.7166618,7.7166618 0 0 1 -7.716474,-7.716474 7.7166618,7.7166618 0 0 1 7.716474,-7.716474 z"/><path style="color:#000;clip-rule:nonzero;display:inline;overflow:visible;visibility:visible;opacity:1;isolation:auto;mix-blend-mode:normal;color-interpolation:sRGB;color-interpolation-filters:linearRGB;solid-color:#000;solid-opacity:1;fill:#fff;fill-opacity:1;fill-rule:nonzero;stroke:none;stroke-width:1;stroke-linecap:butt;stroke-linejoin:round;stroke-miterlimit:4;stroke-dasharray:none;stroke-dashoffset:0;stroke-opacity:1;color-rendering:auto;image-rendering:auto;shape-rendering:auto;text-rendering:auto;enable-background:accumulate" id="path5002" d="m 28.052039,18.011632 a 9.6479062,9.6479062 0 0 0 -9.647415,9.647415 9.6479062,9.6479062 0 0 0 9.647415,9.647415 9.6479062,9.6479062 0 0 0 9.647415,-9.647415 9.6479062,9.6479062 0 0 0 -9.647415,-9.647415 z m 0,3.118183 a 6.5293909,6.5293909 0 0 1 6.529232,6.529232 6.5293909,6.5293909 0 0 1 -6.529232,6.529232 6.5293909,6.5293909 0 0 1 -6.529232,-6.529232 6.5293909,6.5293909 0 0 1 6.529232,-6.529232 z"/><path style="color:#000;clip-rule:nonzero;display:inline;overflow:visible;visibility:visible;opacity:1;isolation:auto;mix-blend-mode:normal;color-interpolation:sRGB;color-interpolation-filters:linearRGB;solid-color:#000;solid-opacity:1;fill:#fff;fill-opacity:1;fill-rule:nonzero;stroke:none;stroke-width:1;stroke-linecap:butt;stroke-linejoin:round;stroke-miterlimit:4;stroke-dasharray:none;stroke-dashoffset:0;stroke-opacity:1;color-rendering:auto;image-rendering:auto;shape-rendering:auto;text-rendering:auto;enable-background:accumulate" id="rect5088" d="m 34.134763,24.536641 -6.528906,2.503036 0.459396,1.198286 6.528906,-2.503036 -0.459396,-1.198286 z"/><path style="color:#000;clip-rule:nonzero;display:inline;overflow:visible;visibility:visible;opacity:1;isolation:auto;mix-blend-mode:normal;color-interpolation:sRGB;color-interpolation-filters:linearRGB;solid-color:#000;solid-opacity:1;fill:#fff;fill-opacity:1;fill-rule:nonzero;stroke:none;stroke-width:1;stroke-linecap:butt;stroke-linejoin:round;stroke-miterlimit:4;stroke-dasharray:none;stroke-dashoffset:0;stroke-opacity:1;color-rendering:auto;image-rendering:auto;shape-rendering:auto;text-rendering:auto;enable-background:accumulate" id="rect5088-2" d="m 31.827821,29.726751 -3.941363,-2.306114 -0.648098,1.107659 3.941364,2.306114 0.648097,-1.107659 z"/></svg>