<svg xmlns="http://www.w3.org/2000/svg" xmlns:svg="http://www.w3.org/2000/svg" id="svg3415" width="40" height="40" version="1.1" viewBox="0 0 40 40"><metadata id="metadata3454"/><title id="title3417">App_Calc</title><desc id="desc3419">Created with Sketch.</desc><path id="rect4175-2-68-3-copy-19-6" d="m 7.5353435,3.3215888 c -3.5530771,0 -6.4129084,2.8622064 -6.4129084,6.4152829 0,0.111434 0.011066,0.2201428 0.016626,0.3301463 l 0,29.411498 37.3255019,0 0,-29.05285 c 0.02396,-0.226287 0.038,-0.4559471 0.038,-0.6887943 0,-3.5530765 -2.859832,-6.4152829 -6.412909,-6.4152829 l -24.5543125,0 z" style="fill:#fff"/><g id="layer1" style="display:inline"><g style="fill:#e74c3c;fill-rule:evenodd;stroke:none;stroke-width:1;fill-opacity:1" id="Alt-1" transform="translate(-410,-304)"><g id="Icons" transform="translate(47,14)" style="fill:#e74c3c;fill-opacity:1"><g id="Appicons" transform="translate(97,264)" style="fill:#e74c3c;fill-opacity:1"><g id="App_Calc" transform="translate(266,26)" style="fill:#e74c3c;fill-opacity:1"><path style="fill:#e74c3c;fill-rule:nonzero;fill-opacity:1" id="rect4177-7" d="m 1,0 38,0 c 0.552285,0 1,0.44771525 1,1 l 0,38 c 0,0.552285 -0.447715,1 -1,1 L 1,40 C 0.44771525,40 0,39.552285 0,39 L 0,1 C 0,0.44771525 0.44771525,0 1,0 Z"/></g></g></g></g><g style="display:inline;fill:#2c3e50;fill-opacity:1;fill-rule:evenodd;stroke:none;stroke-width:1" id="Alt-1-3" transform="matrix(0.88890939,0,0,0.88890939,-362.18396,-268.03524)"><g id="Icons-5" transform="translate(47,14)" style="fill:#2c3e50;fill-opacity:1"><g id="Appicons-6" transform="translate(97,264)" style="fill:#2c3e50;fill-opacity:1"><g id="App_Calc-2" transform="translate(266,26)" style="fill:#2c3e50;fill-opacity:1"><path style="fill:#2c3e50;fill-opacity:1;fill-rule:nonzero" id="rect4177-7-9" d="m 1,0 38,0 c 0.552285,0 1,0.44771525 1,1 l 0,38 c 0,0.552285 -0.447715,1 -1,1 L 1,40 C 0.44771525,40 0,39.552285 0,39 L 0,1 C 0,0.44771525 0.44771525,0 1,0 Z"/></g></g></g></g></g><g id="layer2"><g id="g4584" transform="matrix(1.2160774,0,0,1.2160774,-5.1170871,-3.7099559)"><rect id="rect4175-2-68-3" width="3.4" height="2.333" x="12.193" y="15.294" style="fill:#f1c40f;fill-opacity:1;fill-rule:nonzero;stroke:none;stroke-width:1"/><rect id="rect4175-2-68-3-copy-3" width="3.4" height="2.333" x="12.193" y="18.794" style="fill:#e67e22;fill-opacity:1;fill-rule:nonzero;stroke:none;stroke-width:1"/><rect id="rect4175-2-68-3-copy-7" width="3.4" height="2.333" x="12.193" y="22.294" style="fill:#e74c3c;fill-opacity:1;fill-rule:nonzero;stroke:none;stroke-width:1"/><rect id="rect4175-2-68-3-copy-11" width="3.4" height="2.333" x="12.193" y="25.794" style="fill:#c92918;fill-opacity:.94117647;fill-rule:nonzero;stroke:none;stroke-width:1"/><rect id="rect4175-2-68-3-copy-15" width="3.4" height="2.333" x="12.193" y="29.294" style="fill:#a01507;fill-opacity:1;fill-rule:nonzero;stroke:none;stroke-width:1"/><rect id="rect4175-2-68-3-copy-4" width="3.4" height="2.333" x="16.726" y="18.794" style="fill:#1abc9c;fill-opacity:1;fill-rule:nonzero;stroke:none;stroke-width:1"/><rect id="rect4175-2-68-3-copy-8" width="3.4" height="2.333" x="16.726" y="22.294" style="fill:#27ae60;fill-opacity:1;fill-rule:nonzero;stroke:none;stroke-width:1"/><rect id="rect4175-2-68-3-copy-12" width="3.4" height="2.333" x="16.726" y="25.794" style="fill:#2980b9;fill-opacity:1;fill-rule:nonzero;stroke:none;stroke-width:1"/><rect id="rect4175-2-68-3-copy-16" width="3.4" height="2.333" x="16.726" y="29.294" style="fill:#096eb0;fill-opacity:1;fill-rule:nonzero;stroke:none;stroke-width:1"/><rect id="rect4175-2-68-3-copy-13" width="3.4" height="2.333" x="21.26" y="25.794" style="fill:#c92918;fill-opacity:.94117647;fill-rule:nonzero;stroke:none;stroke-width:1"/><rect id="rect4175-2-68-3-copy-17" width="3.4" height="2.333" x="21.26" y="29.294" style="fill:#a01507;fill-opacity:1;fill-rule:nonzero;stroke:none;stroke-width:1"/><rect id="rect4175-2-68-3-copy-10" width="3.4" height="2.333" x="25.793" y="22.294" style="fill:#fff;fill-rule:nonzero;stroke:none;stroke-width:1"/><rect id="rect4175-2-68-3-copy-14" width="3.4" height="2.333" x="25.793" y="25.794" style="fill:#27ae60;fill-opacity:1;fill-rule:nonzero;stroke:none;stroke-width:1"/><rect id="rect4175-2-68-3-copy-18" width="3.4" height="2.333" x="25.793" y="29.294" style="fill:#2980b9;fill-opacity:1;fill-rule:nonzero;stroke:none;stroke-width:1"/><rect id="rect4175-2-68-3-copy-12-2" width="3.4" height="2.333" x="7.673" y="25.794" style="fill:#27ae60;fill-opacity:1;fill-rule:nonzero;stroke:none;stroke-width:1"/><rect id="rect4175-2-68-3-copy-16-7" width="3.4" height="2.333" x="7.673" y="29.294" style="fill:#096eb0;fill-opacity:1;fill-rule:nonzero;stroke:none;stroke-width:1"/><rect id="rect4175-2-68-3-copy-13-0" width="3.4" height="2.333" x="30.456" y="25.794" style="fill:#e67e22;fill-opacity:1;fill-rule:nonzero;stroke:none;stroke-width:1"/><rect id="rect4175-2-68-3-copy-17-9" width="3.4" height="2.333" x="30.456" y="29.294" style="fill:#a01507;fill-opacity:1;fill-rule:nonzero;stroke:none;stroke-width:1"/></g></g><g id="layer3" style="display:inline"><g style="display:inline;fill:#2c3e50;fill-opacity:1;fill-rule:evenodd;stroke:none;stroke-width:1" id="Alt-1-3-1" transform="matrix(0.88890939,0,0,0.88890939,-362.18396,-268.03524)"><g id="Icons-5-8" transform="translate(47,14)" style="fill:#2c3e50;fill-opacity:1"><g id="Appicons-6-7" transform="translate(97,264)" style="fill:#2c3e50;fill-opacity:1"><g id="App_Calc-2-9" transform="translate(266,26)" style="fill:#2c3e50;fill-opacity:1"><path style="fill:#f1c40f;fill-opacity:1;fill-rule:nonzero" id="rect4177-7-9-2" d="m 6.8046875,5.3808594 c -0.4037005,0 -0.7304687,0.3267682 -0.7304687,0.7304687 l 0,8.3847659 C 16.227986,11.733647 25.977119,11.799369 35.3125,14.765625 l 0,-8.6542969 c 0,-0.4037005 -0.326768,-0.7304687 -0.730469,-0.7304687 l -27.7773435,0 z" transform="matrix(1.3680555,0,0,1.3680555,-8.3090259,-7.3611086)"/></g></g></g></g><g style="display:inline;fill:#2c3e50;fill-opacity:1;fill-rule:evenodd;stroke:none;stroke-width:1" id="Alt-1-3-1-2" transform="matrix(0.88890939,0,0,0.88890939,-362.18396,-268.03524)"><g id="Icons-5-8-8" transform="translate(47,14)" style="fill:#2c3e50;fill-opacity:1"><g id="Appicons-6-7-9" transform="translate(97,264)" style="fill:#2c3e50;fill-opacity:1"><g id="App_Calc-2-9-7" transform="translate(266,26)" style="fill:#2c3e50;fill-opacity:1"><path style="fill:#e67e22;fill-opacity:1;fill-rule:nonzero" id="rect4177-7-9-2-3" d="m 6.8046875,5.3808594 c -0.4037005,0 -0.7304687,0.3267682 -0.7304687,0.7304687 l 0,6.7401339 C 16.227986,10.089015 25.977119,10.154737 35.3125,13.120993 l 0,-7.0096649 c 0,-0.4037005 -0.326768,-0.7304687 -0.730469,-0.7304687 z" transform="matrix(1.3680555,0,0,1.3680555,-8.3090259,-7.3611086)"/></g></g></g></g><g style="display:inline;fill:#e74c3c;fill-opacity:1;fill-rule:evenodd;stroke:none;stroke-width:1" id="Alt-1-3-1-2-1" transform="matrix(0.88890939,0,0,0.88890939,-362.18396,-268.03524)"><g id="Icons-5-8-8-2" transform="translate(47,14)" style="fill:#e74c3c;fill-opacity:1"><g id="Appicons-6-7-9-9" transform="translate(97,264)" style="fill:#e74c3c;fill-opacity:1"><g id="App_Calc-2-9-7-3" transform="translate(266,26)" style="fill:#e74c3c;fill-opacity:1"><path style="fill:#e74c3c;fill-opacity:1;fill-rule:nonzero" id="rect4177-7-9-2-3-1" d="m 6.8046875,5.3808594 c -0.4037005,0 -0.7304687,0.3267682 -0.7304687,0.7304687 l 0,5.0955019 C 16.227986,8.4443828 25.977119,8.5101048 35.3125,11.476361 l 0,-5.3650329 c 0,-0.4037005 -0.326768,-0.7304687 -0.730469,-0.7304687 z" transform="matrix(1.3680555,0,0,1.3680555,-8.3090259,-7.3611086)"/></g></g></g></g><g style="display:inline;fill:#e74c3c;fill-opacity:1;fill-rule:evenodd;stroke:none;stroke-width:1" id="Alt-1-3-1-2-1-4" transform="matrix(0.88890939,0,0,0.88890939,-362.18396,-268.03524)"><g id="Icons-5-8-8-2-7" transform="translate(47,14)" style="fill:#e74c3c;fill-opacity:1"><g id="Appicons-6-7-9-9-8" transform="translate(97,264)" style="fill:#e74c3c;fill-opacity:1"><g id="App_Calc-2-9-7-3-4" transform="translate(266,26)" style="fill:#e74c3c;fill-opacity:1"><path style="fill:#27ae60;fill-opacity:1;fill-rule:nonzero" id="rect4177-7-9-2-3-1-5" d="m 6.8046875,5.3808594 c -0.4037005,0 -0.7304687,0.3267682 -0.7304687,0.7304687 l 0,3.4508697 C 16.227986,6.7997506 25.977119,6.8654726 35.3125,9.8317288 l 0,-3.7204007 c 0,-0.4037005 -0.326768,-0.7304687 -0.730469,-0.7304687 z" transform="matrix(1.3680555,0,0,1.3680555,-8.3090259,-7.3611086)"/></g></g></g></g><g style="display:inline;fill:#e74c3c;fill-opacity:1;fill-rule:evenodd;stroke:none;stroke-width:1" id="Alt-1-3-1-2-1-4-3" transform="matrix(0.88890939,0,0,0.88890939,-362.18396,-268.03524)"><g id="Icons-5-8-8-2-7-6" transform="translate(47,14)" style="fill:#e74c3c;fill-opacity:1"><g id="Appicons-6-7-9-9-8-1" transform="translate(97,264)" style="fill:#e74c3c;fill-opacity:1"><g id="App_Calc-2-9-7-3-4-0" transform="translate(266,26)" style="fill:#e74c3c;fill-opacity:1"><path style="fill:#1abc9c;fill-opacity:1;fill-rule:nonzero" id="rect4177-7-9-2-3-1-5-6" d="m 6.8046875,5.3808594 c -0.4037005,0 -0.7304687,0.3267682 -0.7304687,0.7304687 l 0,1.8062375 C 16.227986,5.1551184 25.977119,5.2208404 35.3125,8.1870966 l 0,-2.0757685 c 0,-0.4037005 -0.326768,-0.7304687 -0.730469,-0.7304687 z" transform="matrix(1.3680555,0,0,1.3680555,-8.3090259,-7.3611086)"/></g></g></g></g></g></svg>