<svg xmlns="http://www.w3.org/2000/svg" xmlns:xlink="http://www.w3.org/1999/xlink" width="42" height="42" version="1.1" viewBox="0 0 42 42"><title>Calc</title><desc>Created with Sketch.</desc><g id="Desktop-HD-Copy" fill="none" fill-rule="evenodd" stroke="none" stroke-width="1" transform="translate(-594.000000, -674.000000)"><g id="Icons" transform="translate(229.000000, 99.000000)"><g id="Appicons" transform="translate(366.000000, 576.000000)"><g id="Calc"><path id="rect4177-7" fill="#ED7765" fill-rule="nonzero" stroke="#FFF" d="M1,0 L39,0 C39.5522847,-1.01453063e-16 40,0.44771525 40,1 L40,39 C40,39.5522847 39.5522847,40 39,40 L1,40 C0.44771525,40 6.76353751e-17,39.5522847 0,39 L0,1 C-6.76353751e-17,0.44771525 0.44771525,1.01453063e-16 1,0 Z"/><g fill="#FFF" fill-rule="nonzero" transform="translate(12.000000, 11.000000)"><rect id="rect4175-2-68-3" width="3.4" height="2.333" x="0" y="4.667"/><rect id="rect4175-2-68-3-copy-19" width="17" height="5.833" x="0" y="-2.333"/><rect id="rect4175-2-68-3-copy-3" width="3.4" height="2.333" x="0" y="8.167"/><rect id="rect4175-2-68-3-copy-7" width="3.4" height="2.333" x="0" y="11.667"/><rect id="rect4175-2-68-3-copy-11" width="3.4" height="2.333" x="0" y="15.167"/><rect id="rect4175-2-68-3-copy-15" width="3.4" height="2.333" x="0" y="18.667"/><rect id="rect4175-2-68-3" width="3.4" height="2.333" x="4.533" y="4.667"/><rect id="rect4175-2-68-3-copy-4" width="3.4" height="2.333" x="4.533" y="8.167"/><rect id="rect4175-2-68-3-copy-8" width="3.4" height="2.333" x="4.533" y="11.667"/><rect id="rect4175-2-68-3-copy-12" width="3.4" height="2.333" x="4.533" y="15.167"/><rect id="rect4175-2-68-3-copy-16" width="3.4" height="2.333" x="4.533" y="18.667"/><rect id="rect4175-2-68-3-copy" width="3.4" height="2.333" x="9.067" y="4.667"/><rect id="rect4175-2-68-3-copy-5" width="3.4" height="2.333" x="9.067" y="8.167"/><rect id="rect4175-2-68-3-copy-9" width="3.4" height="2.333" x="9.067" y="11.667"/><rect id="rect4175-2-68-3-copy-13" width="3.4" height="2.333" x="9.067" y="15.167"/><rect id="rect4175-2-68-3-copy-17" width="3.4" height="2.333" x="9.067" y="18.667"/><rect id="rect4175-2-68-3-copy-2" width="3.4" height="2.333" x="13.6" y="4.667"/><rect id="rect4175-2-68-3-copy-6" width="3.4" height="2.333" x="13.6" y="8.167"/><rect id="rect4175-2-68-3-copy-10" width="3.4" height="2.333" x="13.6" y="11.667"/><rect id="rect4175-2-68-3-copy-14" width="3.4" height="2.333" x="13.6" y="15.167"/><rect id="rect4175-2-68-3-copy-18" width="3.4" height="2.333" x="13.6" y="18.667"/></g><rect id="Rectangle-4" width="20" height="27" x="10.5" y="6.5" stroke="#FFF" rx="1"/></g></g></g></g></svg>