<svg xmlns="http://www.w3.org/2000/svg" xmlns:xlink="http://www.w3.org/1999/xlink" width="42" height="47" version="1.1" viewBox="0 0 42 47"><title>Disk2</title><desc>Created with Sketch.</desc><defs><linearGradient id="linearGradient-1" x1="0%" x2="100%" y1="92.119%" y2="0%"><stop offset="0%" stop-color="#FFF" stop-opacity="0"/><stop offset="100%" stop-color="#FFF" stop-opacity=".2"/></linearGradient></defs><g id="Alt-1" fill="none" fill-rule="evenodd" stroke="none" stroke-width="1" transform="translate(-463.000000, -713.000000)"><g id="Icons" fill-rule="nonzero" transform="translate(47.000000, 14.000000)"><g id="Disks" transform="translate(360.000000, 673.000000)"><g id="Gradient" transform="translate(0.000000, 26.000000)"><g id="Disk2" transform="translate(56.000000, 0.000000)"><rect id="rect5355-1-0" width="42" height="46" x="0" y=".362" fill="#2980B9" rx="3"/><path id="rect5355-1-3-9-4-8-1-2-6" fill="url(#linearGradient-1)" d="M0,0.36133 C0,12.85107 0,29.83781 0,43.36133 C0,45.02334 2.67598,46.36133 6,46.36133 L36,46.36133 C39.32402,46.36133 42,45.02334 42,43.36133 L42,3.36133 C42,1.69932 39.32402,0.36133 36,0.36133 L0,0.36133 Z"/><rect id="rect5355-2-0-2" width="42" height="8.766" x="0" y="37.596" fill="#34495E" rx="3"/><rect id="rect5355-2-6-6-9" width="9.815" height="2.048" x="28.185" y="40.889" fill="#F2C57C" rx="1.024"/></g></g></g></g></g></svg>