<svg xmlns="http://www.w3.org/2000/svg" xmlns:xlink="http://www.w3.org/1999/xlink" width="42" height="47" version="1.1" viewBox="0 0 42 47"><title>Disk Copy 2</title><desc>Created with Sketch.</desc><defs><linearGradient id="linearGradient-1" x1="0%" x2="100%" y1="50%" y2="50%"><stop offset="0%" stop-color="#FFF" stop-opacity="0"/><stop offset="100%" stop-color="#FFF" stop-opacity=".2"/></linearGradient></defs><g id="Desktop-HD-Copy" fill="none" fill-rule="evenodd" stroke="none" stroke-width="1" transform="translate(-792.000000, -345.000000)"><g id="Icons" fill-rule="nonzero" transform="translate(229.000000, 99.000000)"><g id="Disks" transform="translate(476.000000, 240.000000)"><g id="Gradient"><g id="Disk-Copy-2" transform="translate(87.000000, 6.000000)"><rect id="rect5355-1-0" width="42" height="46" x="0" y=".362" fill="#9EA7AB" rx="3"/><path id="rect5355-1-3-9-4-8-1-2-6" fill="url(#linearGradient-1)" d="M21,0.36133 C21,12.85107 21,29.83781 21,43.36133 C21,45.02334 22.33799,46.36133 24,46.36133 L39,46.36133 C40.66201,46.36133 42,45.02334 42,43.36133 L42,3.36133 C42,1.69932 40.66201,0.36133 39,0.36133 L21,0.36133 Z"/><rect id="rect5355-2-0-2" width="42" height="8.766" x="0" y="37.596" fill="#455155" rx="3"/><rect id="rect5355-2-6-6-9" width="9.815" height="2.048" x="28.185" y="40.889" fill="#F2C57C" rx="1.024"/></g></g></g></g></g></svg>