<svg xmlns="http://www.w3.org/2000/svg" xmlns:xlink="http://www.w3.org/1999/xlink" width="52" height="57" version="1.1" viewBox="0 0 52 57"><title>Disk Master</title><desc>Created with Sketch.</desc><defs><linearGradient id="linearGradient-1" x1="0%" x2="100%" y1="50%" y2="50%"><stop offset="0%" stop-color="#FFF" stop-opacity="0"/><stop offset="100%" stop-color="#FFF" stop-opacity=".2"/></linearGradient></defs><g id="Alt-1" fill="none" fill-rule="evenodd" stroke="none" stroke-width="1" transform="translate(-112.000000, -875.000000)"><g id="Icons" transform="translate(112.000000, 27.000000)"><g id="Disks" transform="translate(0.000000, 815.000000)"><g id="Disk-Master"><g transform="translate(0.000000, 33.000000)"><rect id="rect5355-1-0" width="51.204" height="56.081" x="0" y=".442" fill="#B1B8BB" fill-rule="nonzero" rx="3"/><path id="rect5355-1-3-9-4-8-1-2-6" fill="url(#linearGradient-1)" fill-rule="nonzero" d="M25.6021273,0 C25.6021273,15.226853 25.6021273,35.9362188 25.6021273,52.4234036 C25.6021273,54.4496413 27.2333364,56.0808503 29.2595741,56.0808503 L47.5468079,56.0808503 C49.5730456,56.0808503 51.2042546,54.4496413 51.2042546,52.4234036 L51.2042546,3.65744676 C51.2042546,1.63120906 49.5730456,0 47.5468079,0 L25.6021273,0 Z"/><rect id="rect5355-2-0-2" width="51.204" height="10.687" x="0" y="45.835" fill="#455155" fill-rule="nonzero" rx="3"/><rect id="rect5355-2-6-6-9" width="11.966" height="2.497" x="34.362" y="49.85" fill="#F2C57C" fill-rule="nonzero" rx="1.249"/></g></g></g></g></g></svg>