<svg xmlns="http://www.w3.org/2000/svg" xmlns:xlink="http://www.w3.org/1999/xlink" width="42" height="47" version="1.1" viewBox="0 0 42 47"><title>Dropbox</title><desc>Created with Sketch.</desc><defs><linearGradient id="linearGradient-1" x1="17.386%" x2="100%" y1="82.507%" y2="0%"><stop offset="0%" stop-color="#FFF" stop-opacity="0"/><stop offset="100%" stop-color="#FFF" stop-opacity=".4"/></linearGradient><polygon id="path-2" points="9.998 11.233 6.481 13.934 4.436 12.735 4.436 14.043 9.998 17.724 15.577 14.07 15.577 12.759 13.594 13.937"/><filter id="filter-3" width="118%" height="130.8%" x="-9%" y="-15.4%" filterUnits="objectBoundingBox"><feGaussianBlur in="SourceAlpha" result="shadowBlurInner1" stdDeviation=".5"/><feOffset dx="0" dy="1" in="shadowBlurInner1" result="shadowOffsetInner1"/><feComposite in="shadowOffsetInner1" in2="SourceAlpha" k2="-1" k3="1" operator="arithmetic" result="shadowInnerInner1"/><feColorMatrix in="shadowInnerInner1" type="matrix" values="0 0 0 0 0 0 0 0 0 0 0 0 0 0 0 0 0 0 0.5 0"/></filter><polygon id="path-4" points="19.091 3.669 13.723 .276 9.998 3.339 15.57 6.576"/><filter id="filter-5" width="122%" height="131.7%" x="-11%" y="-15.9%" filterUnits="objectBoundingBox"><feGaussianBlur in="SourceAlpha" result="shadowBlurInner1" stdDeviation=".5"/><feOffset dx="0" dy="1" in="shadowBlurInner1" result="shadowOffsetInner1"/><feComposite in="shadowOffsetInner1" in2="SourceAlpha" k2="-1" k3="1" operator="arithmetic" result="shadowInnerInner1"/><feColorMatrix in="shadowInnerInner1" type="matrix" values="0 0 0 0 0 0 0 0 0 0 0 0 0 0 0 0 0 0 0.5 0"/></filter><polygon id="path-6" points="6.43 12.804 9.998 10.065 4.713 6.702 .909 9.567"/><filter id="filter-7" width="122%" height="132.8%" x="-11%" y="-16.4%" filterUnits="objectBoundingBox"><feGaussianBlur in="SourceAlpha" result="shadowBlurInner1" stdDeviation=".5"/><feOffset dx="0" dy="1" in="shadowBlurInner1" result="shadowOffsetInner1"/><feComposite in="shadowOffsetInner1" in2="SourceAlpha" k2="-1" k3="1" operator="arithmetic" result="shadowInnerInner1"/><feColorMatrix in="shadowInnerInner1" type="matrix" values="0 0 0 0 0 0 0 0 0 0 0 0 0 0 0 0 0 0 0.5 0"/></filter><polygon id="path-8" points="6.43 .276 .909 3.837 4.713 6.702 9.998 3.339"/><filter id="filter-9" width="122%" height="131.1%" x="-11%" y="-15.6%" filterUnits="objectBoundingBox"><feGaussianBlur in="SourceAlpha" result="shadowBlurInner1" stdDeviation=".5"/><feOffset dx="0" dy="1" in="shadowBlurInner1" result="shadowOffsetInner1"/><feComposite in="shadowOffsetInner1" in2="SourceAlpha" k2="-1" k3="1" operator="arithmetic" result="shadowInnerInner1"/><feColorMatrix in="shadowInnerInner1" type="matrix" values="0 0 0 0 0 0 0 0 0 0 0 0 0 0 0 0 0 0 0.5 0"/></filter><polygon id="path-10" points="13.641 12.804 19.091 9.567 15.57 6.576 9.998 10.065"/><filter id="filter-11" width="122%" height="132.1%" x="-11%" y="-16.1%" filterUnits="objectBoundingBox"><feGaussianBlur in="SourceAlpha" result="shadowBlurInner1" stdDeviation=".5"/><feOffset dx="0" dy="1" in="shadowBlurInner1" result="shadowOffsetInner1"/><feComposite in="shadowOffsetInner1" in2="SourceAlpha" k2="-1" k3="1" operator="arithmetic" result="shadowInnerInner1"/><feColorMatrix in="shadowInnerInner1" type="matrix" values="0 0 0 0 0 0 0 0 0 0 0 0 0 0 0 0 0 0 0.5 0"/></filter></defs><g id="Alt-1" fill="none" fill-rule="evenodd" stroke="none" stroke-width="1" transform="translate(-577.000000, -886.000000)"><g id="Icons" transform="translate(47.000000, 14.000000)"><g id="Disks" transform="translate(360.000000, 673.000000)"><g id="Dropbox" transform="translate(170.000000, 199.000000)"><g id="Disk-Master"><g><rect id="rect5355-1-0" width="42" height="46" x="0" y=".362" fill="#BDC3C7" fill-rule="nonzero" rx="3"/><rect id="rect5355-2-0-2" width="42" height="8.766" x="0" y="37.596" fill="#34495E" fill-rule="nonzero" rx="3"/><rect id="rect5355-2-6-6-9" width="9.815" height="2.048" x="28.185" y="40.889" fill="#F2C57C" fill-rule="nonzero" rx="1.024"/><path id="rect5355-1-3-9-4-8-1-2-6" fill="url(#linearGradient-1)" fill-rule="nonzero" d="M0,0 C0,11.1321596 0,26.2725148 0,38.326087 C0,39.8074437 2.67598,41 6,41 L36,41 C39.32402,41 42,39.8074437 42,38.326087 L42,2.67391304 C42,1.1925563 39.32402,0 36,0 L0,0 Z"/></g></g><g id="dropbox-2" fill-rule="nonzero" opacity=".8" transform="translate(11.000000, 11.000000)"><g id="Shape"><use fill="#34495E" fill-rule="evenodd" xlink:href="#path-2"/><use fill="#000" fill-opacity="1" filter="url(#filter-3)" xlink:href="#path-2"/></g><g id="Shape"><use fill="#34495E" fill-rule="evenodd" xlink:href="#path-4"/><use fill="#000" fill-opacity="1" filter="url(#filter-5)" xlink:href="#path-4"/></g><g id="Shape"><use fill="#34495E" fill-rule="evenodd" xlink:href="#path-6"/><use fill="#000" fill-opacity="1" filter="url(#filter-7)" xlink:href="#path-6"/></g><g id="Shape"><use fill="#34495E" fill-rule="evenodd" xlink:href="#path-8"/><use fill="#000" fill-opacity="1" filter="url(#filter-9)" xlink:href="#path-8"/></g><g id="Shape"><use fill="#34495E" fill-rule="evenodd" xlink:href="#path-10"/><use fill="#000" fill-opacity="1" filter="url(#filter-11)" xlink:href="#path-10"/></g></g></g></g></g></g></svg>