<svg xmlns="http://www.w3.org/2000/svg" xmlns:xlink="http://www.w3.org/1999/xlink" width="9" height="8" version="1.1" viewBox="0 0 9 8"><title>expand</title><desc>Created with Sketch.</desc><g id="Alt-1" fill="none" fill-rule="evenodd" stroke="none" stroke-width="1" opacity=".8" transform="translate(-1449.000000, -435.000000)"><g id="Navigation" fill="#FFF" transform="translate(882.000000, 282.000000)"><g id="Blue" transform="translate(0.000000, 147.000000)"><g id="Taskbar"><g id="expand" transform="translate(567.000000, 5.000000)"><g id="Shape"><path fill-rule="nonzero" d="M7.57383186,3.94804484 L4.4329838,0.957457609 C4.23299648,0.767037853 4.22524044,0.450550386 4.41566019,0.250563067 C4.51003395,0.151447534 4.64091059,0.0953485359 4.77776927,0.0953485359 L7.91070827,0.0953485359 C8.18633439,0.0953485359 8.40997759,0.318401062 8.41070652,0.594026216 L8.41861558,3.58461344 C8.41934587,3.86075485 8.19608105,4.08520372 7.91993964,4.08593402 C7.79111476,4.08627471 7.6671295,4.03687905 7.57383186,3.94804484 Z M1.39111871,3.76891075 L4.79612351,7.01101724 C4.99611083,7.201437 5.00386688,7.51792446 4.81344712,7.71791178 C4.71907336,7.81702732 4.58819672,7.87312631 4.45133805,7.87312631 L1.05490748,7.87312631 C0.779281361,7.87312631 0.555638159,7.65007379 0.554909227,7.37444863 L0.546334993,4.13234214 C0.545604696,3.85620073 0.768869515,3.63175187 1.04501092,3.63102157 C1.17383581,3.63068088 1.29782107,3.68007654 1.39111871,3.76891075 Z" transform="translate(0.000000, 1.100698)"/></g></g></g></g></g></g></svg>