<svg xmlns="http://www.w3.org/2000/svg" xmlns:xlink="http://www.w3.org/1999/xlink" width="49" height="56" version="1.1" viewBox="0 0 49 56"><title>File_Bookmark</title><desc>Created with Sketch.</desc><g id="Alt-1" fill="none" fill-rule="evenodd" stroke="none" stroke-width="1" transform="translate(-1121.000000, -53.000000)"><g id="Icons" transform="translate(112.000000, 27.000000)"><g id="Filetypes"><g id="FiletypesGradient" transform="translate(0.000000, 26.000000)"><g id="File_Bookmark"><g transform="translate(1009.846154, 0.000000)"><path id="rect4177-7" fill="#35B36A" fill-rule="nonzero" d="M1,2.15384615 L47,2.15384615 C47.5522847,2.15384615 48,2.6015614 48,3.15384615 L48,55 C48,55.5522847 47.5522847,56 47,56 L1,56 C0.44771525,56 3.99185455e-15,55.5522847 0,55 L0,3.15384615 C-6.76353751e-17,2.6015614 0.44771525,2.15384615 1,2.15384615 Z"/><g id="Bookmark" transform="translate(6.153846, 8.615385)"><rect id="rect4175-5-0-6-7" width="36.061" height="2.056" x=".939" y="10.56" fill="#A7A5C6" fill-rule="nonzero" opacity=".8"/><rect id="rect4175-5-6-6-1-5" width="36.061" height="2.056" x=".939" y="17.61" fill="#FFF" fill-rule="nonzero" opacity=".8"/><rect id="rect4175-5-6-2-1-1-6" width="36.061" height="2.056" x=".939" y="24.66" fill="#A7A5C6" fill-rule="nonzero" opacity=".8"/><polygon id="rect5731-9" fill="#F1C40F" fill-rule="nonzero" points="20.29 -9.4 20.29 8.527 29.093 3.539 37.895 8.527 37.895 -9.4"/><polygon id="Star" fill="#F1C40F" fill-rule="evenodd" stroke="#F1C40F" stroke-width="1" points="5.968 5.287 3.863 6.377 4.265 4.07 2.562 2.436 4.915 2.099 5.968 0 7.02 2.099 9.373 2.436 7.67 4.07 8.072 6.377"/></g></g></g></g></g></g></g></svg>