<svg xmlns="http://www.w3.org/2000/svg" xmlns:xlink="http://www.w3.org/1999/xlink" width="49" height="56" version="1.1" viewBox="0 0 49 56"><title>File_Text</title><desc>Created with Sketch.</desc><defs><linearGradient id="linearGradient-1" x1="6.528%" x2="100%" y1="100%" y2="0%"><stop offset="0%" stop-color="#FFF" stop-opacity="0"/><stop offset="100%" stop-color="#FFF" stop-opacity=".2"/></linearGradient></defs><g id="Alt-1" fill="none" fill-rule="evenodd" stroke="none" stroke-width="1" transform="translate(-785.000000, -55.000000)"><g id="Icons" transform="translate(112.000000, 27.000000)"><g id="Filetypes"><g id="FiletypesGradient" transform="translate(0.000000, 26.000000)"><g id="File_Text"><g transform="translate(673.230769, 2.000000)"><path id="rect4177-7" fill="#ECF0F1" fill-rule="nonzero" d="M1,0 L47,0 C47.5522847,-1.01453063e-16 48,0.44771525 48,1 L48,55 C48,55.5522847 47.5522847,56 47,56 L1,56 C0.44771525,56 6.76353751e-17,55.5522847 0,55 L0,1 C-6.76353751e-17,0.44771525 0.44771525,1.01453063e-16 1,0 Z"/><path id="Rectangle" fill="url(#linearGradient-1)" d="M0,0 L47,0 C47.5522847,-1.01453063e-16 48,0.44771525 48,1 L48,55 C48,55.5522847 47.5522847,56 47,56 L0,56 L0,0 Z"/><rect id="rect4175-2-68-3" width="37.2" height="2.24" x="6" y="16.8" fill="#4D4D4D" fill-rule="nonzero" opacity=".8"/><rect id="rect4175-5-0-8-6" width="37.2" height="2.24" x="6" y="23.52" fill="#333" fill-rule="nonzero" opacity=".8"/><rect id="rect4175-5-6-6-4-8" width="37.2" height="2.24" x="6" y="30.24" fill="#4D4D4D" fill-rule="nonzero" opacity=".8"/><rect id="rect4175-5-6-2-1-3-0" width="37.2" height="2.24" x="6" y="36.96" fill="#1A1A1A" fill-rule="nonzero" opacity=".8"/></g></g></g></g></g></g></svg>