<svg xmlns="http://www.w3.org/2000/svg" xmlns:xlink="http://www.w3.org/1999/xlink" width="49" height="56" version="1.1" viewBox="0 0 49 56"><title>File_Code</title><desc>Created with Sketch.</desc><defs><linearGradient id="linearGradient-1" x1="0%" x2="100%" y1="100%" y2="0%"><stop offset="0%" stop-color="#FFF" stop-opacity="0"/><stop offset="100%" stop-color="#FFF" stop-opacity=".2"/></linearGradient></defs><g id="Alt-1" fill="none" fill-rule="evenodd" stroke="none" stroke-width="1" transform="translate(-832.000000, -81.000000)"><g id="Icons" transform="translate(75.000000, 53.000000)"><g id="Filetypes"><g id="FiletypesGradient" transform="translate(0.000000, 26.000000)"><g id="File_Code"><g transform="translate(757.384615, 2.000000)"><path id="rect4177-7" fill="#ECF0F1" fill-rule="nonzero" d="M1,0 L47,0 C47.5522847,-1.01453063e-16 48,0.44771525 48,1 L48,55 C48,55.5522847 47.5522847,56 47,56 L1,56 C0.44771525,56 6.76353751e-17,55.5522847 0,55 L0,1 C-6.76353751e-17,0.44771525 0.44771525,1.01453063e-16 1,0 Z"/><path id="Rectangle" fill="url(#linearGradient-1)" d="M0,0 L47,0 C47.5522847,-1.01453063e-16 48,0.44771525 48,1 L48,55 C48,55.5522847 47.5522847,56 47,56 L0,56 L0,0 Z"/><g id="Group" fill="#34495E" fill-rule="nonzero" transform="translate(8.000000, 17.000000)"><polygon id="path857-3" points="20.8 .042 20.8 3.813 26.875 8.842 20.8 13.87 20.8 17.642 31.6 9.009"/><polygon id="path859-6" points="11.2 3.562 11.2 7.333 5.125 12.362 11.2 17.39 11.2 21.162 .4 12.529"/><rect id="rect861-7" width="2.54" height="19.947" x="14.839" y=".929" transform="translate(16.108504, 10.902605) rotate(15.000000) translate(-16.108504, -10.902605)"/></g></g></g></g></g></g></g></svg>