<svg xmlns="http://www.w3.org/2000/svg" xmlns:xlink="http://www.w3.org/1999/xlink" width="13" height="12" version="1.1" viewBox="0 0 13 12"><title>File</title><desc>Created with Sketch.</desc><g id="Alt-1" fill="none" fill-rule="evenodd" stroke="none" stroke-width="1" transform="translate(-921.000000, -590.000000)"><g id="Navigation" transform="translate(882.000000, 282.000000)"><g id="File"><g transform="translate(39.000000, 308.000000)"><rect id="Rectangle-2" width="12" height="9.154" x=".5" y="2.346" stroke="#FFF" rx="1"/><path id="Rectangle-2" stroke="#FFF" d="M1,0.500125047 C0.723857625,0.500125047 0.5,0.723982672 0.5,1.00012505 L0.5,11.0000089 C0.5,11.2761513 0.723857625,11.5000089 1,11.5000089 L12,11.5000089 C12.2761424,11.5000089 12.5,11.2761513 12.5,11.0000089 L12.5,2.83260404 C12.5,2.55646167 12.2761424,2.33260404 12,2.33260404 C11.2064896,2.33260404 11.2064896,2.33260404 10.4129791,2.33260404 C10.1472159,2.33260404 9.92444357,2.21337869 9.56205055,1.95158297 C9.45651334,1.87534202 8.89410846,1.44576122 8.72234259,1.32174213 C7.96864424,0.777553739 7.37556046,0.500416639 6.8383571,0.500125047 C5.37876783,0.500125047 5.37876783,0.500125047 3.91917855,0.500125047 C2.45958928,0.500125047 2.45958928,0.500125047 1,0.500125047 Z"/><polygon id="Rectangle" fill="#FFF" points=".691 .292 7.387 .292 10.459 2.383 .691 2.383"/></g></g></g></g></svg>