<svg xmlns="http://www.w3.org/2000/svg" xmlns:xlink="http://www.w3.org/1999/xlink" width="49" height="56" version="1.1" viewBox="0 0 49 56"><title>File_Excel</title><desc>Created with Sketch.</desc><defs><linearGradient id="linearGradient-1" x1="0%" x2="95.655%" y1="100%" y2="0%"><stop offset="0%" stop-color="#FFF" stop-opacity="0"/><stop offset="100%" stop-color="#FFF" stop-opacity=".2"/></linearGradient></defs><g id="Alt-1" fill="none" fill-rule="evenodd" stroke="none" stroke-width="1" transform="translate(-280.000000, -55.000000)"><g id="Icons" transform="translate(112.000000, 27.000000)"><g id="Filetypes"><g id="FiletypesGradient" transform="translate(0.000000, 26.000000)"><g id="File_Excel"><g transform="translate(168.307692, 2.000000)"><path id="rect4177-7" fill="#27AE60" fill-rule="nonzero" d="M1,0 L47,0 C47.5522847,-1.01453063e-16 48,0.44771525 48,1 L48,55 C48,55.5522847 47.5522847,56 47,56 L1,56 C0.44771525,56 6.76353751e-17,55.5522847 0,55 L0,1 C-6.76353751e-17,0.44771525 0.44771525,1.01453063e-16 1,0 Z"/><polygon id="E" fill="#FFF" points="6.18 7.602 11.775 7.602 11.775 8.484 7.29 8.484 7.29 11.522 11.07 11.522 11.07 12.39 7.29 12.39 7.29 15.918 11.925 15.918 11.925 16.8 6.18 16.8" opacity=".8"/><rect id="Rectangle" width="48" height="56" x="0" y="0" fill="url(#linearGradient-1)"/><rect id="rect4175-0-4" width="18" height="2.24" x="25.2" y="21.28" fill="#FFF" fill-rule="nonzero" opacity=".8"/><rect id="rect4175-5-9-1" width="18" height="2.24" x="25.2" y="28" fill="#FFF" fill-rule="nonzero" opacity=".8"/><rect id="rect4175-5-6-3-8" width="18" height="2.24" x="25.2" y="34.72" fill="#FFF" fill-rule="nonzero" opacity=".8"/><rect id="rect4175-5-6-2-6-5" width="18" height="2.24" x="25.2" y="41.44" fill="#FFF" fill-rule="nonzero" opacity=".8"/><rect id="rect4175-0-0-97" width="1.2" height="20.16" x="25.2" y="22.4" fill="#FFF" fill-rule="nonzero" opacity=".8"/><rect id="rect4175-0-0-6-5" width="1.2" height="21.28" x="42" y="21.28" fill="#FFF" fill-rule="nonzero" opacity=".8"/><rect id="rect4175-0-0-2-3" width="1.2" height="19.04" x="33.6" y="22.4" fill="#FFF" fill-rule="nonzero" opacity=".8"/></g></g></g></g></g></g></svg>