<svg xmlns="http://www.w3.org/2000/svg" xmlns:svg="http://www.w3.org/2000/svg" xmlns:xlink="http://www.w3.org/1999/xlink" id="svg2" width="51.201" height="59.734" version="1.1" viewBox="0 0 48.001 56.001"><defs id="defs4"><linearGradient id="linearGradient-1" x1="3.385" x2="51.846" y1="51.846" y2="0" gradientTransform="scale(0.9258201,1.0801234)" gradientUnits="userSpaceOnUse"><stop id="stop4145" offset="0%" stop-color="#FFF" stop-opacity="0"/><stop id="stop4147" offset="100%" stop-color="#FFF" stop-opacity=".2"/></linearGradient><linearGradient id="linearGradient4239" x1="3.385" x2="51.846" y1="51.846" y2="0" gradientTransform="matrix(0.9258201,0,0,1.0801234,227.4286,464.3622)" gradientUnits="userSpaceOnUse" xlink:href="#linearGradient-1"/></defs><metadata id="metadata7"/><g id="layer1" transform="translate(-227.42773,-464.36133)"><path style="fill:#ecf0f1;fill-rule:nonzero;stroke:none;stroke-width:1" id="rect4177-7" d="m 228.4286,464.3622 46,0 c 0.55228,0 1,0.44772 1,1 l 0,54 c 0,0.55229 -0.44772,1 -1,1 l -46,0 c -0.55228,0 -1,-0.44771 -1,-1 l 0,-54 c 0,-0.55228 0.44772,-1 1,-1 z"/><path id="Rectangle" d="m 227.42773,464.36133 0,56 47,0 c 0.55228,0 1,-0.44771 1,-1 l 0,-54 c 0,-0.55228 -0.44772,-1 -1,-1 l -47,0 z" style="fill:url(#linearGradient4239);fill-rule:evenodd;stroke:none;stroke-width:1"/><path id="rect4175-5-6-6-4-8" d="m 239.06738,478.41699 -1.58399,1.58399 12.36133,12.36133 -12.36133,12.35937 1.58399,1.58399 12.35937,-12.36133 12.36133,12.36133 1.58399,-1.58399 -12.35938,-12.35937 12.35938,-12.36133 -1.58399,-1.58399 -12.36133,12.35938 -12.35937,-12.35938 z" style="opacity:.8;fill:#4d4d4d;fill-rule:nonzero;stroke:none;stroke-width:1"/></g></svg>