<svg xmlns="http://www.w3.org/2000/svg" xmlns:xlink="http://www.w3.org/1999/xlink" width="49" height="56" version="1.1" viewBox="0 0 49 56"><title>File_Powerpoint</title><desc>Created with Sketch.</desc><defs><linearGradient id="linearGradient-1" x1="4.557%" x2="100%" y1="100%" y2="0%"><stop offset="0%" stop-color="#FFF" stop-opacity="0"/><stop offset="100%" stop-color="#FFF" stop-opacity=".2"/></linearGradient></defs><g id="Alt-1" fill="none" fill-rule="evenodd" stroke="none" stroke-width="1" transform="translate(-364.000000, -55.000000)"><g id="Icons" transform="translate(112.000000, 27.000000)"><g id="Filetypes"><g id="FiletypesGradient" transform="translate(0.000000, 26.000000)"><g id="File_Powerpoint"><g transform="translate(252.461538, 2.000000)"><path id="rect4177-7" fill="#E67E22" fill-rule="nonzero" d="M1,0 L47,0 C47.5522847,-1.01453063e-16 48,0.44771525 48,1 L48,55 C48,55.5522847 47.5522847,56 47,56 L1,56 C0.44771525,56 6.76353751e-17,55.5522847 0,55 L0,1 C-6.76353751e-17,0.44771525 0.44771525,1.01453063e-16 1,0 Z"/><path id="P" fill="#FFF" d="M6.18,7.602 L8.91,7.602 C10.0800059,7.602 10.9824968,7.80966459 11.6175,8.225 C12.2525032,8.64033541 12.57,9.32399524 12.57,10.276 C12.57,11.2000046 12.2500032,11.8976643 11.61,12.369 C10.9699968,12.8403357 10.0900056,13.076 8.97,13.076 L7.29,13.076 L7.29,16.8 L6.18,16.8 L6.18,7.602 Z M8.805,12.222 C9.71500455,12.222 10.3849979,12.0656682 10.815,11.753 C11.2450022,11.4403318 11.46,10.9480034 11.46,10.276 C11.46,9.60399664 11.2400022,9.13033471 10.8,8.855 C10.3599978,8.57966529 9.67500465,8.442 8.745,8.442 L7.29,8.442 L7.29,12.222 L8.805,12.222 Z" opacity=".8"/><rect id="Rectangle" width="48" height="56" x="0" y="0" fill="url(#linearGradient-1)"/><g id="Group-3" fill="#FFF" fill-rule="nonzero" transform="translate(26.400000, 20.160000)"><rect id="rect4175-0-3-8" width="18" height="1.96" x="0" y="1.106" opacity=".8"/><rect id="rect4175-5-6-2-6-2-9" width="18" height="1.96" x="0" y="21.266" opacity=".8"/><rect id="rect4175-0-0-9-6" width="1.65" height="20.3" x="0" y="1.946" opacity=".8"/><rect id="rect4175-0-0-6-1-4" width="1.65" height="21.14" x="16.35" y="1.526" opacity=".8"/><path id="path4226-0-5" fill-opacity=".608" d="M7.338348,6.72 C6.60802017,6.72059213 5.98741478,7.02222865 5.87628,7.4306176 C5.67020851,7.38486599 5.44738688,7.36114064 5.222016,7.3609536 C4.32618629,7.36109687 3.6000971,7.72522226 3.6,8.174376 C3.60004487,8.50241516 3.99304629,8.79834434 4.596684,8.9248768 C4.68614607,9.02770794 4.84947909,9.12119239 5.071704,9.1967568 C4.89152002,9.37588882 4.8158726,9.56871928 4.853088,9.754024 C4.9253419,10.1049907 5.393459,10.3904353 6.088488,10.507336 C6.08921873,10.5233446 6.09121986,10.5392576 6.094488,10.555048 C6.13288529,10.7419424 6.34677483,10.9034621 6.68910043,11.0040724 C7.03142604,11.1046828 7.47414423,11.1361416 7.919856,11.091528 C8.14105974,11.0693371 8.35629937,11.0290532 8.553228,10.9729872 C9.02258585,11.2507479 9.98045326,11.3650107 10.992672,11.2639856 C12.1166414,11.1512821 13.0550086,10.7991646 13.301112,10.3977552 C14.0874778,10.1436117 14.5403261,9.68758304 14.449692,9.2411088 C14.3897746,8.94724339 14.0993799,8.68866082 13.6424476,8.52229634 C13.1855154,8.35593185 12.5995117,8.29542647 12.013464,8.3541024 C11.7069158,8.38519751 11.4104641,8.44794631 11.142984,8.5383536 C11.0399935,8.32994849 10.8331103,8.14618963 10.546584,8.008616 C10.5710544,7.95787032 10.5837244,7.90609052 10.584384,7.8541344 C10.5845424,7.65792338 10.4136296,7.46972577 10.109269,7.33096983 C9.80490842,7.19221389 9.39204965,7.114274 8.961576,7.1143072 C8.84447631,7.11457574 8.7277845,7.12062163 8.61354,7.1323392 C8.34736906,6.87703512 7.86265577,6.72025495 7.338756,6.7200112 L7.338348,6.72 Z" opacity=".7"/><polygon id="rect4396-3-4" fill-opacity=".8" points="10.491 13.44 8.568 16.694 7.84 15.55 6.282 17.322 5.268 16.318 2.4 19.75 4.149 19.75 14.23 19.75 15.979 19.75 12.24 14.976 11.698 15.478 10.491 13.44"/></g></g></g></g></g></g></g></svg>