<svg xmlns="http://www.w3.org/2000/svg" xmlns:xlink="http://www.w3.org/1999/xlink" width="49" height="56" version="1.1" viewBox="0 0 49 56"><title>File_Image</title><desc>Created with Sketch.</desc><defs><linearGradient id="linearGradient-1" x1="0%" x2="100%" y1="100%" y2="0%"><stop offset="0%" stop-color="#FFF" stop-opacity="0"/><stop offset="72.578%" stop-color="#FFF" stop-opacity=".145"/><stop offset="76.107%" stop-color="#FFF" stop-opacity=".152"/><stop offset="76.107%" stop-color="#FFF" stop-opacity=".152"/><stop offset="100%" stop-color="#FFF" stop-opacity=".2"/></linearGradient></defs><g id="Alt-1" fill="none" fill-rule="evenodd" stroke="none" stroke-width="1" transform="translate(-448.000000, -55.000000)"><g id="Icons" transform="translate(112.000000, 27.000000)"><g id="Filetypes"><g id="FiletypesGradient" transform="translate(0.000000, 26.000000)"><g id="File_Image"><g transform="translate(336.615385, 2.000000)"><path id="rect4177-7" fill="#E74C3C" fill-rule="nonzero" d="M1,0 L47,0 C47.5522847,-1.01453063e-16 48,0.44771525 48,1 L48,55 C48,55.5522847 47.5522847,56 47,56 L1,56 C0.44771525,56 6.76353751e-17,55.5522847 0,55 L0,1 C-6.76353751e-17,0.44771525 0.44771525,1.01453063e-16 1,0 Z"/><rect id="Rectangle" width="48" height="56" x="0" y="0" fill="url(#linearGradient-1)"/><g id="Group-4" fill="#FFF" fill-rule="nonzero" transform="translate(7.200000, 8.960000)"><g id="cloud-4" fill-opacity=".7" transform="translate(10.800000, 0.000000)"><path id="Shape" d="M6.47386364,2.45318182 C6.38946818,2.44600364 6.30384545,2.44363636 6.21818182,2.44363636 C4.52556818,2.44363636 3.30272823,3.53439803 2.9192055,5.00680349 C1.28157368,5.72507985 0,7.27004727 0,9.01090909 C0,11.4533618 2.12854091,13.44 4.74545455,13.44 L15.6272727,13.44 C18.5599636,13.44 20.9454545,11.2135036 20.9454545,8.47636364 C20.9454545,5.89668545 18.8258318,3.77045455 16.1258318,3.53418545 C15.4700182,1.47954545 13.4399045,0 11.0454545,0 C9.12272727,0 7.40965909,0.949772727 6.47386364,2.45318182 Z"/></g><polygon id="rect4396-8" fill-opacity=".9" points="13.417 31.864 7.759 23.897 0 35.84 4.482 35.84 30.318 35.84 34.8 35.84 20.735 20.16"/></g></g></g></g></g></g></g></svg>