<svg xmlns="http://www.w3.org/2000/svg" xmlns:xlink="http://www.w3.org/1999/xlink" width="49" height="56" version="1.1" viewBox="0 0 49 56"><title>File_CodeComplete</title><desc>Created with Sketch.</desc><defs><linearGradient id="linearGradient-1" x1="0%" x2="100%" y1="100%" y2="0%"><stop offset="0%" stop-color="#FFF" stop-opacity="0"/><stop offset="100%" stop-color="#FFF" stop-opacity=".2"/></linearGradient></defs><g id="Alt-1" fill="none" fill-rule="evenodd" stroke="none" stroke-width="1" transform="translate(-196.000000, -177.000000)"><g id="Icons" transform="translate(112.000000, 27.000000)"><g id="Filetypes"><g id="FiletypesGradient" transform="translate(0.000000, 26.000000)"><g id="File_CodeComplete"><g transform="translate(84.200000, 124.000000)"><path id="rect4177-7" fill="#ECF0F1" fill-rule="nonzero" d="M1,0 L47,0 C47.5522847,-1.01453063e-16 48,0.44771525 48,1 L48,55 C48,55.5522847 47.5522847,56 47,56 L1,56 C0.44771525,56 6.76353751e-17,55.5522847 0,55 L0,1 C-6.76353751e-17,0.44771525 0.44771525,1.01453063e-16 1,0 Z"/><path id="Rectangle" fill="url(#linearGradient-1)" d="M0,0 L47,0 C47.5522847,-1.01453063e-16 48,0.44771525 48,1 L48,55 C48,55.5522847 47.5522847,56 47,56 L0,56 L0,0 Z"/><rect id="rect861-7" width="2.54" height="19.04" x="22.997" y="13.422" fill="#34495E" fill-rule="nonzero" transform="translate(24.266680, 22.942401) rotate(15.000000) translate(-24.266680, -22.942401)"/><polygon id="rect4775-2" fill="#34495E" fill-rule="nonzero" points="26.4 32.48 26.4 48.16 42 40.006"/><polygon id="path857-3" fill="#34495E" fill-rule="nonzero" points="28.8 12.32 28.8 15.92 34.875 20.72 28.8 25.52 28.8 29.12 39.6 20.879"/><polygon id="path859-6" fill="#34495E" fill-rule="nonzero" points="19.2 16.8 19.2 20.4 13.125 25.2 19.2 30 19.2 33.6 8.4 25.359"/></g></g></g></g></g></g></svg>