<svg xmlns="http://www.w3.org/2000/svg" xmlns:svg="http://www.w3.org/2000/svg" id="svg968" width="49" height="56" version="1.1" viewBox="0 0 49 56"><metadata id="metadata972"/><title id="title947">File_Vector</title><desc id="desc949">Created with Sketch.</desc><defs id="defs956"><linearGradient id="linearGradient-1" x1="0%" x2="100%" y1="100%" y2="0%"><stop id="stop951" offset="0%" stop-color="#FFF" stop-opacity="0"/><stop id="stop953" offset="100%" stop-color="#FFF" stop-opacity=".2"/></linearGradient></defs><g id="Alt-1" fill="none" fill-rule="evenodd" stroke="none" stroke-width="1" transform="translate(-532.000000, -55.000000)"><g id="Icons" transform="translate(112.000000, 27.000000)"><g id="Filetypes"><g id="FiletypesGradient" transform="translate(0.000000, 26.000000)"><g id="File_Vector" transform="translate(420.769231, 2.000000)"><g id="g961"><path id="rect4177-7" fill="#F39C12" fill-rule="nonzero" d="M1,0 L47,0 C47.5522847,-1.01453063e-16 48,0.44771525 48,1 L48,55 C48,55.5522847 47.5522847,56 47,56 L1,56 C0.44771525,56 6.76353751e-17,55.5522847 0,55 L0,1 C-6.76353751e-17,0.44771525 0.44771525,1.01453063e-16 1,0 Z"/><rect id="Rectangle" width="48" height="56" x="0" y="0" fill="url(#linearGradient-1)"/></g></g></g></g></g></g><path style="color:#000;overflow:visible;opacity:1;fill:#fff;stroke:none;stroke-width:26.4567;stroke-linejoin:round" id="rect1001" d="M 22.035156 15.841797 C 21.637875 15.841797 21.318359 16.161313 21.318359 16.558594 L 21.318359 21.970703 C 21.318359 22.367984 21.637875 22.6875 22.035156 22.6875 L 22.179688 22.6875 L 15.322266 33.474609 L 12.806641 33.474609 C 12.409361 33.474609 12.089844 33.794125 12.089844 34.191406 L 12.089844 39.603516 C 12.089844 40.000797 12.409361 40.320312 12.806641 40.320312 L 19.259766 40.320312 C 19.657047 40.320312 19.976562 40.000797 19.976562 39.603516 L 19.976562 34.191406 C 19.976562 33.794125 19.657047 33.474609 19.259766 33.474609 L 17.251953 33.474609 L 24.109375 22.6875 L 26.414062 22.6875 L 33.271484 33.474609 L 31.263672 33.474609 C 30.866392 33.474609 30.546875 33.794125 30.546875 34.191406 L 30.546875 39.603516 C 30.546875 40.000797 30.866392 40.320312 31.263672 40.320312 L 37.71875 40.320312 C 38.116031 40.320312 38.435547 40.000797 38.435547 39.603516 L 38.435547 34.191406 C 38.435547 33.794125 38.116031 33.474609 37.71875 33.474609 L 35.201172 33.474609 L 28.34375 22.6875 L 28.488281 22.6875 C 28.885561 22.6875 29.205078 22.367984 29.205078 21.970703 L 29.205078 16.558594 C 29.205078 16.161313 28.885561 15.841797 28.488281 15.841797 L 22.035156 15.841797 z"/></svg>