<svg xmlns="http://www.w3.org/2000/svg" xmlns:xlink="http://www.w3.org/1999/xlink" width="62" height="46" version="1.1" viewBox="0 0 62 46"><title>FolderOpen</title><desc>Created with Sketch.</desc><defs><polygon id="path-1" points="2 4 31.526 14.61 52.103 15 58 9.861 33.314 9.861 27.555 4"/><filter id="filter-2" width="110.7%" height="154.5%" x="-5.4%" y="-27.3%" filterUnits="objectBoundingBox"><feOffset dx="0" dy="0" in="SourceAlpha" result="shadowOffsetOuter1"/><feGaussianBlur in="shadowOffsetOuter1" result="shadowBlurOuter1" stdDeviation="1"/><feColorMatrix in="shadowBlurOuter1" type="matrix" values="0 0 0 0 0 0 0 0 0 0 0 0 0 0 0 0 0 0 0.5 0"/></filter><linearGradient id="linearGradient-3" x1="32.701%" x2="92.545%" y1="65.851%" y2="8.856%"><stop offset="0%" stop-color="#FFF" stop-opacity="0"/><stop offset="6.638%" stop-color="#FFF" stop-opacity=".013"/><stop offset="6.638%" stop-color="#FFF" stop-opacity=".013"/><stop offset="14.718%" stop-color="#FFF" stop-opacity=".029"/><stop offset="19.398%" stop-color="#FFF" stop-opacity=".039"/><stop offset="35.592%" stop-color="#FFF" stop-opacity=".071"/><stop offset="35.592%" stop-color="#FFF" stop-opacity=".071"/><stop offset="35.592%" stop-color="#FFF" stop-opacity=".071"/><stop offset="35.592%" stop-color="#FFF" stop-opacity=".071"/><stop offset="35.592%" stop-color="#FFF" stop-opacity=".071"/><stop offset="100%" stop-color="#FFF" stop-opacity=".1"/></linearGradient></defs><g id="Symbols" fill="none" fill-rule="evenodd" stroke="none" stroke-width="1"><g id="FolderOpen"><g transform="translate(0.000000, 3.000000)"><path id="rect4177-9-7-2-2-48" fill="#C88C35" fill-rule="nonzero" d="M3,1 L3,17.1646673 C3,21.5045302 5.26700199,25 8.08102051,25 L35.2476528,25 C38.0710102,24.9400032 37.4808426,18.7983056 40.3260636,15.3271222 L54.0007185,15.3271222 C56.5442941,15.3271222 59.0765222,8.70886111 58.9982301,8.70886111 L58.9982301,1 C58.9982301,0.44771525 58.5505148,6.02455021e-13 57.9982301,5.98632255e-13 L34.9814676,6.40590012e-13 C24.6543118,4.33736687e-13 14.3271559,2.26883363e-13 4,2.0030038e-14 L4,-2.22044605e-16 C3.44771525,-1.14027217e-14 3,0.44771525 3,1 Z"/><g id="rect4177-9-7-2-2-48" fill-rule="nonzero"><use fill="#000" fill-opacity="1" filter="url(#filter-2)" xlink:href="#path-1"/><use fill="#000" fill-rule="evenodd" xlink:href="#path-1"/></g><path id="rect4177-9-7-2-0" fill="#E7B66F" fill-rule="nonzero" d="M0.00770416438,4.07011931 L2.67881271,42.0701193 C2.71563053,42.5939008 3.15127741,43 3.67635132,43 L56.8182377,43 C57.3204212,43 57.7447158,42.6275559 57.809803,42.1296082 L61.9811806,10.2165648 C62.0527612,9.66893837 61.6668499,9.16697189 61.1192235,9.09539124 C61.0762492,9.08977404 61.0329552,9.08695652 60.9896153,9.08695652 L52.6904726,9.08695652 L33.1765873,9.08695652 C33.0391207,9.08695652 32.9077178,9.03035959 32.8132738,8.93047261 L27.3539169,3.15648391 C27.2594729,3.05659694 27.12807,3 26.9906034,3 L1.00524278,3 C0.452958026,3 0.0052427761,3.44771525 0.0052427761,4 C0.0052427761,4.0233947 0.00606374404,4.0467822 0.00770416438,4.07011931 Z"/><path id="Rectangle-6" fill="url(#linearGradient-3)" d="M3,0 L58,0 C58.5522847,-1.01453063e-16 59,0.44771525 59,1 L59,42 C59,42.5522847 58.5522847,43 58,43 L3,43 L3,0 Z"/></g></g></g></svg>