<svg xmlns="http://www.w3.org/2000/svg" xmlns:svg="http://www.w3.org/2000/svg" xmlns:xlink="http://www.w3.org/1999/xlink" id="svg4409" width="62" height="46" version="1.1" viewBox="0 0 62 46"><metadata id="metadata4463"/><title id="title4411">Folder</title><desc id="desc4413">Created with Sketch.</desc><defs id="defs4415"><polygon id="path-1" points="27.046 7.125 28.864 11.807 49.711 12.217 54.526 7.125 30.532 7.125 26.576 2.033"/><filter id="filter-2" width="110.7%" height="129.5%" x="-5.4%" y="-14.7%" filterUnits="objectBoundingBox"><feOffset id="feOffset4419" dx="0" dy="0" in="SourceAlpha" result="shadowOffsetOuter1"/><feGaussianBlur id="feGaussianBlur4421" in="shadowOffsetOuter1" result="shadowBlurOuter1" stdDeviation=".5"/><feColorMatrix id="feColorMatrix4423" in="shadowBlurOuter1" type="matrix" values="0 0 0 0 0 0 0 0 0 0 0 0 0 0 0 0 0 0 0.5 0"/></filter><linearGradient id="linearGradient-3" x1="16.597" x2="46.971" y1="33.422" y2="4.495" gradientTransform="matrix(1.1033546,0,0,0.90632697,3,0)" gradientUnits="userSpaceOnUse"><stop id="stop4426" offset="0%" stop-color="#FFF" stop-opacity="0"/><stop id="stop4428" offset="6.638%" stop-color="#FFF" stop-opacity=".013"/><stop id="stop4430" offset="6.638%" stop-color="#FFF" stop-opacity=".013"/><stop id="stop4432" offset="14.718%" stop-color="#FFF" stop-opacity=".029"/><stop id="stop4434" offset="19.398%" stop-color="#FFF" stop-opacity=".039"/><stop id="stop4436" offset="35.592%" stop-color="#FFF" stop-opacity=".071"/><stop id="stop4438" offset="35.592%" stop-color="#FFF" stop-opacity=".071"/><stop id="stop4440" offset="35.592%" stop-color="#FFF" stop-opacity=".071"/><stop id="stop4442" offset="35.592%" stop-color="#FFF" stop-opacity=".071"/><stop id="stop4444" offset="35.592%" stop-color="#FFF" stop-opacity=".071"/><stop id="stop4446" offset="100%" stop-color="#FFF" stop-opacity=".1"/></linearGradient><linearGradient id="linearGradient-3-6" x1="16.597" x2="46.971" y1="33.422" y2="4.495" gradientTransform="matrix(1.1033546,0,0,0.90632697,3,0)" gradientUnits="userSpaceOnUse"><stop id="stop4426-7" offset="0%" stop-color="#FFF" stop-opacity="0"/><stop id="stop4428-5" offset="6.638%" stop-color="#FFF" stop-opacity=".013"/><stop id="stop4430-3" offset="6.638%" stop-color="#FFF" stop-opacity=".013"/><stop id="stop4432-5" offset="14.718%" stop-color="#FFF" stop-opacity=".029"/><stop id="stop4434-6" offset="19.398%" stop-color="#FFF" stop-opacity=".039"/><stop id="stop4436-2" offset="35.592%" stop-color="#FFF" stop-opacity=".071"/><stop id="stop4438-9" offset="35.592%" stop-color="#FFF" stop-opacity=".071"/><stop id="stop4440-1" offset="35.592%" stop-color="#FFF" stop-opacity=".071"/><stop id="stop4442-2" offset="35.592%" stop-color="#FFF" stop-opacity=".071"/><stop id="stop4444-7" offset="35.592%" stop-color="#FFF" stop-opacity=".071"/><stop id="stop4446-0" offset="100%" stop-color="#FFF" stop-opacity=".1"/></linearGradient><filter id="filter-2-9" width="1.107" height="1.295" x="-.054" y="-.147" filterUnits="objectBoundingBox"><feOffset id="feOffset4419-3" dx="0" dy="0" in="SourceAlpha" result="shadowOffsetOuter1"/><feGaussianBlur id="feGaussianBlur4421-6" in="shadowOffsetOuter1" result="shadowBlurOuter1" stdDeviation=".5"/><feColorMatrix id="feColorMatrix4423-0" in="shadowBlurOuter1" type="matrix" values="0 0 0 0 0 0 0 0 0 0 0 0 0 0 0 0 0 0 0.5 0"/></filter></defs><g id="layer1" style="display:inline"><path style="fill:#c88c35;fill-rule:nonzero;stroke:none;stroke-width:1" id="rect4177-9-7-2-2-48" d="M 3,3.0325405 3,16.055346 C 3,19.347993 5.267002,22 8.0810205,22 l 27.1666325,0 c 2.823357,-0.04552 2.23319,-4.705216 5.078411,-7.338797 l 13.674654,0 c 2.543576,0 5.075804,-5.0212637 4.997512,-5.0212637 l 0,-5.6073988 c 0,-0.5522847 -0.447715,-1 -1,-1 l -23.016762,0 c 0,0 -10.66049,0 -31.981468,0 z"/><use id="use4455" width="100%" height="100%" x="0" y="0" transform="translate(3,0)" xlink:href="#path-1" style="fill:#000;fill-opacity:1;fill-rule:nonzero;stroke:none;stroke-width:1;filter:url(#filter-2-9)"/><use id="use4457" width="100%" height="100%" x="0" y="0" transform="translate(3,0)" xlink:href="#path-1" style="fill:#000;fill-rule:evenodd;stroke:none;stroke-width:1"/><path style="fill:#e7b66f;fill-rule:nonzero;stroke:none;stroke-width:1" id="rect4177-9-7-2-0" d="M 3,1 3,11.524036 3,45 c 0,0.552285 0.4477153,1 1,1 l 54,0 c 0.552285,0 1,-0.447715 1,-1 L 59,18.343409 59,11.524036 59,8 C 59,7.4477152 58.552285,7 58,7 L 53.898964,7 34.026785,7 C 33.878861,7 33.73853,6.9345006 33.643529,6.8211157 L 28.078244,0.17888425 C 27.983243,0.06549942 27.842912,0 27.694989,0 L 4,0 C 3.4477153,0 3,0.44771525 3,1 Z"/></g><g id="layer2" style="display:inline"><path style="fill:url(#linearGradient-3-6);fill-rule:evenodd;stroke:none;stroke-width:1" id="Rectangle-6" d="M 4,0 C 3.447715,0 3,0.44771525 3,1 L 3,11.523438 3,45 c 0,0.552285 0.447715,1 1,1 l 54,0 c 0.552285,0 1,-0.447715 1,-1 L 59,18.34375 59,11.523438 59,8 C 59,7.4477152 58.552285,7 58,7 L 53.898438,7 34.027344,7 C 33.87942,7 33.737579,6.9336974 33.642578,6.8203125 L 28.078125,0.1796875 C 27.983124,0.06630267 27.843235,0 27.695312,0 L 4,0 Z"/></g></svg>