<svg xmlns="http://www.w3.org/2000/svg" xmlns:svg="http://www.w3.org/2000/svg" xmlns:xlink="http://www.w3.org/1999/xlink" id="svg4409" width="62" height="46" version="1.1" viewBox="0 0 62 46"><metadata id="metadata4463"/><title id="title4411">Folder</title><desc id="desc4413">Created with Sketch.</desc><defs id="defs4415"><polygon id="path-1" points="27.046 7.125 28.864 11.807 49.711 12.217 54.526 7.125 30.532 7.125 26.576 2.033"/><filter id="filter-2" width="110.7%" height="129.5%" x="-5.4%" y="-14.7%" filterUnits="objectBoundingBox"><feOffset id="feOffset4419" dx="0" dy="0" in="SourceAlpha" result="shadowOffsetOuter1"/><feGaussianBlur id="feGaussianBlur4421" in="shadowOffsetOuter1" result="shadowBlurOuter1" stdDeviation=".5"/><feColorMatrix id="feColorMatrix4423" in="shadowBlurOuter1" type="matrix" values="0 0 0 0 0 0 0 0 0 0 0 0 0 0 0 0 0 0 0.5 0"/></filter><linearGradient id="linearGradient-3" x1="16.597" x2="46.971" y1="33.422" y2="4.495" gradientTransform="matrix(1.1033546,0,0,0.90632697,3,0)" gradientUnits="userSpaceOnUse"><stop id="stop4426" offset="0%" stop-color="#FFF" stop-opacity="0"/><stop id="stop4428" offset="6.638%" stop-color="#FFF" stop-opacity=".013"/><stop id="stop4430" offset="6.638%" stop-color="#FFF" stop-opacity=".013"/><stop id="stop4432" offset="14.718%" stop-color="#FFF" stop-opacity=".029"/><stop id="stop4434" offset="19.398%" stop-color="#FFF" stop-opacity=".039"/><stop id="stop4436" offset="35.592%" stop-color="#FFF" stop-opacity=".071"/><stop id="stop4438" offset="35.592%" stop-color="#FFF" stop-opacity=".071"/><stop id="stop4440" offset="35.592%" stop-color="#FFF" stop-opacity=".071"/><stop id="stop4442" offset="35.592%" stop-color="#FFF" stop-opacity=".071"/><stop id="stop4444" offset="35.592%" stop-color="#FFF" stop-opacity=".071"/><stop id="stop4446" offset="100%" stop-color="#FFF" stop-opacity=".1"/></linearGradient><linearGradient id="linearGradient-3-6" x1="16.597" x2="46.971" y1="33.422" y2="4.495" gradientTransform="matrix(0.81920448,0,0,0.67291795,10.211864,5.923257)" gradientUnits="userSpaceOnUse"><stop id="stop4426-7" offset="0%" stop-color="#FFF" stop-opacity="0"/><stop id="stop4428-5" offset="6.638%" stop-color="#FFF" stop-opacity=".013"/><stop id="stop4430-3" offset="6.638%" stop-color="#FFF" stop-opacity=".013"/><stop id="stop4432-5" offset="14.718%" stop-color="#FFF" stop-opacity=".029"/><stop id="stop4434-6" offset="19.398%" stop-color="#FFF" stop-opacity=".039"/><stop id="stop4436-2" offset="35.592%" stop-color="#FFF" stop-opacity=".071"/><stop id="stop4438-9" offset="35.592%" stop-color="#FFF" stop-opacity=".071"/><stop id="stop4440-1" offset="35.592%" stop-color="#FFF" stop-opacity=".071"/><stop id="stop4442-2" offset="35.592%" stop-color="#FFF" stop-opacity=".071"/><stop id="stop4444-7" offset="35.592%" stop-color="#FFF" stop-opacity=".071"/><stop id="stop4446-0" offset="100%" stop-color="#FFF" stop-opacity=".1"/></linearGradient><filter id="filter-2-9" width="1.107" height="1.295" x="-.054" y="-.147" filterUnits="objectBoundingBox"><feOffset id="feOffset4419-3" dx="0" dy="0" in="SourceAlpha" result="shadowOffsetOuter1"/><feGaussianBlur id="feGaussianBlur4421-6" in="shadowOffsetOuter1" result="shadowBlurOuter1" stdDeviation=".5"/><feColorMatrix id="feColorMatrix4423-0" in="shadowBlurOuter1" type="matrix" values="0 0 0 0 0 0 0 0 0 0 0 0 0 0 0 0 0 0 0.5 0"/></filter></defs><g id="layer1" style="display:inline"><path style="fill:#c88c35;fill-rule:nonzero;stroke:none;stroke-width:1" id="rect4177-9-7-2-2-48" d="m 10.211864,8.1748185 0,9.6690045 c 0,2.444682 1.683175,4.41371 3.772491,4.41371 l 20.17033,0 c 2.09625,-0.0338 1.658071,-3.493468 3.770554,-5.448815 l 10.15298,0 c 1.888522,0 3.768617,-3.728123 3.710488,-3.728123 l 0,-4.1633094 c 0,-0.4100532 -0.332413,-0.7424671 -0.742467,-0.7424671 l -17.089188,0 c 0,0 -7.915063,0 -23.745188,0 z"/><use id="use4455" width="100%" height="100%" x="0" y="0" transform="matrix(0.74246709,0,0,0.74246709,10.211864,5.923257)" xlink:href="#path-1" style="fill:#000;fill-opacity:1;fill-rule:nonzero;stroke:none;stroke-width:1;filter:url(#filter-2-9)"/><use id="use4457" width="100%" height="100%" x="0" y="0" transform="matrix(0.74246709,0,0,0.74246709,10.211864,5.923257)" xlink:href="#path-1" style="fill:#000;fill-rule:evenodd;stroke:none;stroke-width:1"/><path style="fill:#e7b66f;fill-rule:nonzero;stroke:none;stroke-width:1" id="rect4177-9-7-2-0" d="m 10.211864,6.665724 0,7.81375 0,24.854802 c 0,0.410053 0.332414,0.742467 0.742468,0.742467 l 40.093222,0 c 0.410054,0 0.742467,-0.332414 0.742467,-0.742467 l 0,-19.791642 0,-5.06316 0,-2.61648 c 0,-0.410054 -0.332413,-0.742467 -0.742467,-0.742467 l -3.044884,0 -14.754439,0 c -0.109829,0 -0.21402,-0.04863 -0.284555,-0.132816 L 28.831635,6.0560726 C 28.7611,5.9718881 28.656909,5.923257 28.547081,5.923257 l -17.592749,0 c -0.410054,0 -0.742468,0.3324138 -0.742468,0.742467 z"/></g><g id="layer2" style="display:inline"><path style="fill:url(#linearGradient-3-6);fill-rule:evenodd;stroke:none;stroke-width:1" id="Rectangle-6" d="m 10.954332,5.923257 c -0.410054,0 -0.742468,0.3324138 -0.742468,0.742467 l 0,7.813306 0,24.855246 c 0,0.410053 0.332414,0.742467 0.742468,0.742467 l 40.093222,0 c 0.410054,0 0.742467,-0.332414 0.742467,-0.742467 l 0,-19.791388 0,-5.063858 0,-2.616036 c 0,-0.410054 -0.332413,-0.742467 -0.742467,-0.742467 l -3.045274,0 -14.753634,0 c -0.109828,0 -0.215141,-0.04923 -0.285676,-0.133412 L 28.831547,6.056669 C 28.761012,5.9724845 28.657149,5.923257 28.547321,5.923257 l -17.592989,0 z"/></g></svg>