<svg xmlns="http://www.w3.org/2000/svg" xmlns:xlink="http://www.w3.org/1999/xlink" width="44" height="36" version="1.1" viewBox="0 0 44 36"><title>FolderGradient</title><desc>Created with Sketch.</desc><defs><linearGradient id="linearGradient-1" x1="0%" x2="98.151%" y1="50%" y2="50%"><stop offset="0%" stop-color="#FFF" stop-opacity="0"/><stop offset="100%" stop-color="#FFF" stop-opacity=".1"/></linearGradient></defs><g id="Desktop-HD-Copy" fill="none" fill-rule="evenodd" stroke="none" stroke-width="1" transform="translate(-508.000000, -345.000000)"><g id="Icons" transform="translate(230.000000, 99.000000)"><g id="Folders" transform="translate(169.000000, 246.000000)"><g id="FolderGradient" transform="translate(109.000000, 0.000000)"><path id="rect4177-9-7-2-2-48" fill="#C88C35" fill-rule="nonzero" d="M0.948527,1.92186 L0.948527,5.2044656 L0.948527,7.17451223 C0.948527,8.1856201 2.652859,9 4.768438,9 L25.192311,9 C27.314911,8.98602186 26.871223,7.55511978 29.01026,6.74639816 L39.290865,6.74639816 C41.203125,6.74639816 43.106854,5.2044656 43.047994,5.2044656 L43.047994,4.17546184 C43.047994,3.62317709 42.6002787,3.17546184 42.047994,3.17546184 L24.992193,3.17546184 C23.6528246,2.54674683 22.5013244,0.92186 21.174242,0.92186 L1.948527,0.92186 C1.39624225,0.92186 0.948527,1.36957525 0.948527,1.92186 Z"/><path id="rect4177-9-7-2-0" fill="#E7B66F" fill-rule="nonzero" d="M0.939453,4.98047 L0.939453,8.52167 L0.939453,34.50781 C0.939453,35.0600947 1.38716825,35.50781 1.939453,35.50781 L42.0402506,35.50781 C42.5925354,35.50781 43.0402506,35.0600947 43.0402506,34.50781 L43.0402506,13.85955 L43.0402506,8.52167 L43.0402506,4.98047 L39.2052919,4.98047 L4.77635927,4.98047 L0.939453,4.98047 Z"/><path id="Rectangle-6" fill="url(#linearGradient-1)" d="M22,3 L42,3 C42.5522847,3 43,3.44771525 43,4 L43,34.5 C43,35.0522847 42.5522847,35.5 42,35.5 L22,35.5 L22,3 Z"/></g></g></g></g></svg>