<svg xmlns="http://www.w3.org/2000/svg" xmlns:xlink="http://www.w3.org/1999/xlink" width="56" height="46" version="1.1" viewBox="0 0 56 46"><title>FriendPackage</title><desc>Created with Sketch.</desc><defs><linearGradient id="linearGradient-1" x1="32.701%" x2="92.545%" y1="65.851%" y2="8.856%"><stop offset="0%" stop-color="#FFF" stop-opacity="0"/><stop offset="6.638%" stop-color="#FFF" stop-opacity=".013"/><stop offset="6.638%" stop-color="#FFF" stop-opacity=".013"/><stop offset="14.718%" stop-color="#FFF" stop-opacity=".029"/><stop offset="19.398%" stop-color="#FFF" stop-opacity=".039"/><stop offset="35.592%" stop-color="#FFF" stop-opacity=".071"/><stop offset="35.592%" stop-color="#FFF" stop-opacity=".071"/><stop offset="35.592%" stop-color="#FFF" stop-opacity=".071"/><stop offset="35.592%" stop-color="#FFF" stop-opacity=".071"/><stop offset="35.592%" stop-color="#FFF" stop-opacity=".071"/><stop offset="100%" stop-color="#FFF" stop-opacity=".1"/></linearGradient><linearGradient id="linearGradient-2" x1="3.675%" x2="100%" y1="96.058%" y2="0%"><stop offset="0%" stop-color="#FFF" stop-opacity="0"/><stop offset="100%" stop-color="#FFF" stop-opacity=".15"/></linearGradient></defs><g id="Alt-1" fill="none" fill-rule="evenodd" stroke="none" stroke-width="1" transform="translate(-399.000000, -753.000000)"><g id="Icons" transform="translate(75.000000, 53.000000)"><g id="Folders" transform="translate(0.000000, 670.000000)"><g id="FriendPackage"><g transform="translate(324.000000, 30.000000)"><path id="rect4177-9-7-2-0" fill="#7F8C8D" fill-rule="nonzero" d="M0,1 L0,4.98804023 L0,42 C-3.8565838e-15,42.5522847 0.44771525,43 1,43 L55,43 C55.5522847,43 56,42.5522847 56,42 L56,12.5068362 L56,4.98804023 L56,1 C56,0.44771525 55.5522847,-1.95039362e-15 55,-5.77315973e-15 L50.8989639,0 L5.10362661,0 L1,0 C0.44771525,1.01453063e-16 -6.76353751e-17,0.44771525 0,1 Z"/><path id="rect4177-9-7-2-0" fill="#2980B9" fill-rule="nonzero" d="M0,4 L0,7.98804023 L0,45 C-3.8565838e-15,45.5522847 0.44771525,46 1,46 L55,46 C55.5522847,46 56,45.5522847 56,45 L56,15.5068362 L56,7.98804023 L56,4 C56,3.44771525 55.5522847,3 55,3 L50.8989639,3 L5.10362661,3 L1,3 C0.44771525,3 -6.76353751e-17,3.44771525 0,4 Z"/><path id="Rectangle-6" fill="url(#linearGradient-1)" d="M1,3 L55,3 C55.5522847,3 56,3.44771525 56,4 L56,45 C56,45.5522847 55.5522847,46 55,46 L0,46 L0,4 C-6.76353751e-17,3.44771525 0.44771525,3 1,3 Z"/><path id="Rectangle-2" fill="url(#linearGradient-2)" d="M1,3 L55,3 C55.5522847,3 56,3.44771525 56,4 L56,46 L0,46 L0,4 C-6.76353751e-17,3.44771525 0.44771525,3 1,3 Z"/><g id="Zipper" fill-rule="nonzero" transform="translate(24.000000, 4.000000)"><rect id="rect1037" width="3.058" height="3.345" x="1.32" y="19.087" fill="#FFF"/><rect id="rect1039" width="3.058" height="3.345" x="5.279" y="22.268" fill="#FFF"/><rect id="rect1039" width="3.058" height="3.345" x="5.279" y="28.631" fill="#FFF"/><rect id="rect1039" width="3.058" height="3.345" x="5.279" y="34.993" fill="#FFF"/><rect id="rect1041" width="3.058" height="3.345" x="1.32" y="25.449" fill="#FFF"/><rect id="rect1041" width="3.058" height="3.345" x="1.32" y="31.812" fill="#FFF"/><rect id="rect1041" width="3.058" height="3.345" x="1.32" y="38.174" fill="#FFF"/><rect id="rect1062" width="4.078" height="6.691" x="2.64" y="0" fill="#FFFFF4"/><path id="rect1024" fill="#FFF" d="M0.65993266,1.59059166 L0.65993266,18.3175279 L8.57912458,18.3175279 L8.57912458,1.59059166 C8.57912458,1.59059166 5.93939394,1.59059166 0.65993266,1.59059166 Z M7.27926318,10.8514086 L7.27926318,16.0491892 L1.9998019,16.0491892 L1.9998019,10.8514086 L7.27926318,10.8514086 Z"/></g></g></g></g></g></g></svg>