<svg xmlns="http://www.w3.org/2000/svg" xmlns:svg="http://www.w3.org/2000/svg" id="svg4784" width="42" height="42" version="1.1" viewBox="0 0 42 42"><metadata id="metadata4807"/><title id="title4786">FriendChat</title><desc id="desc4788">Created with Sketch.</desc><g id="Desktop-HD-Copy" fill="none" fill-rule="evenodd" stroke="none" stroke-width="1" transform="translate(-702.000000, -674.000000)"><g id="Icons" transform="translate(229.000000, 99.000000)"><g id="Appicons" transform="translate(366.000000, 576.000000)"><g id="FriendChat" transform="translate(108.000000, 0.000000)"><path id="rect4177-7" fill="#A382B8" fill-rule="nonzero" stroke="#FFF" d="M1,0 L39,0 C39.5522847,-1.01453063e-16 40,0.44771525 40,1 L40,39 C40,39.5522847 39.5522847,40 39,40 L1,40 C0.44771525,40 6.76353751e-17,39.5522847 0,39 L0,1 C-6.76353751e-17,0.44771525 0.44771525,1.01453063e-16 1,0 Z" style="fill:#1487bf;fill-opacity:.94117647;stroke:none"/></g></g></g></g><g id="g4840" transform="translate(45,-2)" style="stroke:#fff;stroke-width:1.89999998;stroke-miterlimit:4;stroke-dasharray:none"><rect id="rect4809" width="20" height="16" x="-30" y="15" ry="1.068" style="fill:none;fill-rule:evenodd;stroke:#fff;stroke-width:1.89999998;stroke-linecap:butt;stroke-linejoin:miter;stroke-miterlimit:4;stroke-dasharray:none;stroke-opacity:1"/><path id="path4831" d="m -29,15.377119 5,8 8,0 5,-8" style="fill:none;fill-rule:evenodd;stroke:#fff;stroke-width:1.89999998;stroke-linecap:butt;stroke-linejoin:miter;stroke-miterlimit:4;stroke-dasharray:none;stroke-opacity:1"/><path id="path4835" d="M -29.266949,30.622881 -25,22" style="fill:none;fill-rule:evenodd;stroke:#fff;stroke-width:1.89999998;stroke-linecap:butt;stroke-linejoin:miter;stroke-miterlimit:4;stroke-dasharray:none;stroke-opacity:1"/><path id="path4837" d="M -10.733051,30.444915 -15,22" style="fill:none;fill-rule:evenodd;stroke:#fff;stroke-width:1.89999998;stroke-linecap:butt;stroke-linejoin:miter;stroke-miterlimit:4;stroke-dasharray:none;stroke-opacity:1"/></g><path style="fill:none;fill-rule:evenodd;stroke:#fff;stroke-width:1.20000005;stroke-linecap:butt;stroke-linejoin:miter;stroke-miterlimit:4;stroke-dasharray:none;stroke-opacity:1" id="path5646" d="m 10,16.625 0,10"/><path style="fill:none;fill-rule:evenodd;stroke:#fff;stroke-width:1.2;stroke-linecap:butt;stroke-linejoin:miter;stroke-opacity:1;stroke-miterlimit:4;stroke-dasharray:none" id="path5646-6" d="m 6.375,16.625 0,10"/></svg>