<svg xmlns="http://www.w3.org/2000/svg" xmlns:xlink="http://www.w3.org/1999/xlink" width="44" height="36" version="1.1" viewBox="0 0 44 36"><title>SystemFolder</title><desc>Created with Sketch.</desc><defs><text id="text-1" fill="#455155" font-family="FontAwesome" font-size="18" font-weight="normal"><tspan x="12.357" y="25"></tspan></text><filter id="filter-2" width="105%" height="111.1%" x="-2.5%" y="-8.3%" filterUnits="objectBoundingBox"><feGaussianBlur in="SourceAlpha" result="shadowBlurInner1" stdDeviation=".5"/><feOffset dx="0" dy="0" in="shadowBlurInner1" result="shadowOffsetInner1"/><feComposite in="shadowOffsetInner1" in2="SourceAlpha" k2="-1" k3="1" operator="arithmetic" result="shadowInnerInner1"/><feColorMatrix in="shadowInnerInner1" type="matrix" values="0 0 0 0 0 0 0 0 0 0 0 0 0 0 0 0 0 0 0.5 0"/></filter><filter id="filter-3" width="105%" height="111.1%" x="-2.5%" y="-8.3%" filterUnits="objectBoundingBox"><feGaussianBlur in="SourceAlpha" result="shadowBlurInner1" stdDeviation=".5"/><feOffset dx="0" dy="0" in="shadowBlurInner1" result="shadowOffsetInner1"/><feComposite in="shadowOffsetInner1" in2="SourceAlpha" k2="-1" k3="1" operator="arithmetic" result="shadowInnerInner1"/><feColorMatrix in="shadowInnerInner1" type="matrix" values="0 0 0 0 0 0 0 0 0 0 0 0 0 0 0 0 0 0 0.5 0"/></filter></defs><g id="Desktop-HD-Copy" fill="none" fill-rule="evenodd" stroke="none" stroke-width="1" transform="translate(-559.000000, -539.000000)"><g id="Icons" transform="translate(229.000000, 99.000000)"><g id="Folders" transform="translate(169.000000, 246.000000)"><g id="SystemFolder" transform="translate(161.000000, 194.000000)"><path id="rect4177-9-7-2-2-48" fill="#455155" fill-rule="nonzero" d="M0.948527,1.92186 L0.948527,5.2044656 L0.948527,7.17451223 C0.948527,8.1856201 2.652859,9 4.768438,9 L25.192311,9 C27.314911,8.98602186 26.871223,7.55511978 29.01026,6.74639816 L39.290865,6.74639816 C41.203125,6.74639816 43.106854,5.2044656 43.047994,5.2044656 L43.047994,4.17546184 C43.047994,3.62317709 42.6002787,3.17546184 42.047994,3.17546184 L24.992193,3.17546184 C23.6528246,2.54674683 22.5013244,0.92186 21.174242,0.92186 L1.948527,0.92186 C1.39624225,0.92186 0.948527,1.36957525 0.948527,1.92186 Z"/><path id="rect4177-9-7-2-0" fill="#7B8D93" fill-rule="nonzero" d="M0.939453,4.98047 L0.939453,8.52167 L0.939453,34.50781 C0.939453,35.0600947 1.38716825,35.50781 1.939453,35.50781 L42.0402506,35.50781 C42.5925354,35.50781 43.0402506,35.0600947 43.0402506,34.50781 L43.0402506,13.85955 L43.0402506,8.52167 L43.0402506,4.98047 L39.2052919,4.98047 L4.77635927,4.98047 L0.939453,4.98047 Z"/><g id="" fill="#455155" fill-opacity="1" opacity=".8"><use filter="url(#filter-2)" xlink:href="#text-1"/><use filter="url(#filter-3)" xlink:href="#text-1"/></g></g></g></g></g></svg>