<svg xmlns="http://www.w3.org/2000/svg" xmlns:svg="http://www.w3.org/2000/svg" id="svg4207" width="14" height="12" version="1.1" viewBox="0 0 14 12"><metadata id="metadata4222"/><title id="title4209">Screen</title><desc id="desc4211">Created with Sketch.</desc><g id="Desktop-HD" fill="none" fill-rule="evenodd" stroke="none" stroke-width="1" transform="translate(-1411.000000, -4.000000)"><g id="Desktop" fill="#455155"><g id="Top-Menu"><g id="Screen" transform="translate(1411.000000, 4.000000)"><path id="" d="m 12.571429,9.6932773 0,-7.3361344 c 0,-0.058036 -0.02121,-0.1082587 -0.06362,-0.1506697 -0.04241,-0.042411 -0.09263,-0.063616 -0.15067,-0.063616 l -10.7142859,0 c -0.058036,0 -0.1082587,0.021205 -0.1506696,0.063616 -0.042411,0.042411 -0.063616,0.092634 -0.063616,0.1506697 l 0,7.3361344 c 0,0.058036 0.021205,0.1082588 0.063616,0.1506697 0.042411,0.042411 0.092634,0.063616 0.1506696,0.063616 l 10.7142859,0 c 0.05804,0 0.108259,-0.021205 0.15067,-0.063616 0.04241,-0.042411 0.06362,-0.092634 0.06362,-0.1506697 z m 0.857142,-7.3361344 0,7.2857143 c 0,0.2946443 -0.104909,0.5468738 -0.314732,0.7566968 -0.209822,0.209823 -0.462052,0.314732 -0.756696,0.314732 l -3.6428573,0 -3.4285714,0 -3.6428572,0 c -0.2946443,0 -0.5468739,-0.104909 -0.75669639,-0.314732 C 0.67633824,10.189731 0.57142857,9.9375015 0.57142857,9.6428572 l 0,-7.2857143 c 0,-0.2946443 0.10490967,-0.546874 0.31473214,-0.7566964 C 1.0959832,1.390624 1.3482128,1.2857144 1.6428571,1.2857144 l 10.7142859,0 c 0.294644,0 0.546874,0.1049096 0.756696,0.3147321 0.209823,0.2098224 0.314732,0.4620521 0.314732,0.7566964 z"/></g></g></g></g></svg>