<svg xmlns="http://www.w3.org/2000/svg" xmlns:xlink="http://www.w3.org/1999/xlink" width="56" height="46" version="1.1" viewBox="0 0 56 46"><title>ZipPackage</title><desc>Created with Sketch.</desc><defs><linearGradient id="linearGradient-1" x1="33.335%" x2="100%" y1="76.106%" y2="0%"><stop offset="0%" stop-color="#FFF" stop-opacity="0"/><stop offset="63.648%" stop-color="#FFF" stop-opacity=".127"/><stop offset="63.648%" stop-color="#FFF" stop-opacity=".127"/><stop offset="100%" stop-color="#FFF" stop-opacity=".2"/></linearGradient></defs><g id="Alt-1" fill="none" fill-rule="evenodd" stroke="none" stroke-width="1" transform="translate(-468.000000, -753.000000)"><g id="Icons" transform="translate(75.000000, 53.000000)"><g id="Folders" transform="translate(0.000000, 670.000000)"><g id="ZipPackage"><g transform="translate(393.000000, 30.000000)"><path id="rect4177-9-7-2-2-48" fill="#C88C35" fill-rule="nonzero" d="M0,3.06666667 L0,16.401706 C0,19.7732972 2.26700199,22.4888889 5.08102051,22.4888889 L32.2476528,22.4888889 C35.0710102,22.4422781 34.4808426,17.6708614 37.3260636,14.9741376 L51.0007185,14.9741376 C53.5442941,14.9741376 56.0765222,9.8324841 55.9982301,9.8324841 L55.9982301,4.06666667 C55.9982301,3.51438192 55.5505148,3.06666667 54.9982301,3.06666667 L31.9814676,3.06666667 C31.9814676,3.06666667 21.3209784,3.06666667 0,3.06666667 Z"/><path id="rect4177-9-7-2-2-48" fill="#E2A44B" fill-rule="nonzero" d="M0,1 L0,7.04507101 L0,10.2858827 C0,11.9491988 2.08784622,13.2888889 4.67947954,13.2888889 L29.6991975,13.2888889 C32.2994317,13.2658942 33.2220659,11.0446531 32.9559967,10.2858827 C32.6899275,9.52711236 25.7803866,0.365289562 24.7769698,2.25122534e-20 C16.8513132,1.53110343e-20 8.9256566,8.10981509e-21 1,9.0859591e-22 L1,-2.22044605e-16 C0.44771525,-1.20591542e-16 -1.78657678e-16,0.44771525 -1.11022302e-16,1 Z"/><path id="rect4177-9-7-2-0" fill="#7F8C8D" fill-rule="nonzero" d="M0,1 L0,4.98030683 L0,41.9333333 C6.76353751e-17,42.4856181 0.44771525,42.9333333 1,42.9333333 L55,42.9333333 C55.5522847,42.9333333 56,42.4856181 56,41.9333333 L56,12.4874457 L56,4.98030683 L56,1 C56,0.44771525 55.5522847,-1.99683181e-15 55,-5.32907052e-15 L50.8989639,0 L5.10362661,0 L1,0 C0.44771525,1.01453063e-16 -6.76353751e-17,0.44771525 0,1 Z"/><path id="rect4177-9-7-2-0" fill="#E2A44B" fill-rule="nonzero" d="M0,4.06666667 L0,8.0469735 L0,45 C3.99185455e-15,45.5522847 0.44771525,46 1,46 L55,46 C55.5522847,46 56,45.5522847 56,45 L56,15.5541124 L56,8.0469735 L56,4.06666667 C56,3.51438192 55.5522847,3.06666667 55,3.06666667 L50.8989639,3.06666667 L5.10362661,3.06666667 L1,3.06666667 C0.44771525,3.06666667 -6.76353751e-17,3.51438192 0,4.06666667 Z"/><path id="Rectangle-2" fill="url(#linearGradient-1)" d="M1,3.06666667 L55,3.06666667 C55.5522847,3.06666667 56,3.51438192 56,4.06666667 L56,46 L0,46 L0,4.06666667 C-6.76353751e-17,3.51438192 0.44771525,3.06666667 1,3.06666667 Z"/><g id="Zipper" fill-rule="nonzero" transform="translate(24.000000, 4.088889)"><rect id="rect1037" width="3.058" height="3.333" x="1.32" y="19.017" fill="#FFF"/><rect id="rect1039" width="3.058" height="3.333" x="5.279" y="22.187" fill="#FFF"/><rect id="rect1039" width="3.058" height="3.333" x="5.279" y="28.526" fill="#FFF"/><rect id="rect1039" width="3.058" height="3.333" x="5.279" y="34.865" fill="#FFF"/><rect id="rect1041" width="3.058" height="3.333" x="1.32" y="25.356" fill="#FFF"/><rect id="rect1041" width="3.058" height="3.333" x="1.32" y="31.695" fill="#FFF"/><rect id="rect1041" width="3.058" height="3.333" x="1.32" y="38.034" fill="#FFF"/><rect id="rect1062" width="4.078" height="6.666" x="2.64" y="0" fill="#FFFFF4"/><path id="rect1024" fill="#FFF" d="M0.65993266,1.58476775 L0.65993266,18.2504587 L8.57912458,18.2504587 L8.57912458,1.58476775 C8.57912458,1.58476775 5.93939394,1.58476775 0.65993266,1.58476775 Z M7.27926318,10.8116764 L7.27926318,15.9904255 L1.9998019,15.9904255 L1.9998019,10.8116764 L7.27926318,10.8116764 Z"/></g></g></g></g></g></g></svg>