<?xml version="1.0" encoding="UTF-8"?>
<svg width="29px" height="17px" viewBox="0 0 29 17" version="1.1" xmlns="http://www.w3.org/2000/svg" xmlns:xlink="http://www.w3.org/1999/xlink">
    <!-- Generator: Sketch 57.1 (83088) - https://sketch.com -->
    <title>Group 3</title>
    <desc>Created with Sketch.</desc>
    <g id="Page-1" stroke="none" stroke-width="1" fill="none" fill-rule="evenodd">
        <g id="Alt-1" transform="translate(-890.000000, -1109.000000)" fill="#34495E">
            <g id="Icons" transform="translate(47.000000, 46.000000)">
                <g id="Disks" transform="translate(0.000000, 1014.000000)">
                    <g id="Linux-Copy-5" transform="translate(831.000000, 33.000000)">
                        <g id="Group-3" transform="translate(12.000000, 16.000000)">
                            <path d="M17.7497336,8.08910365 C18.0047234,8.16505806 18.2475026,8.26813749 18.4780784,8.39834504 C18.7086543,8.52855259 18.9500772,8.7265736 19.2023543,8.99241402 C19.4546315,9.25825444 19.6702845,9.57156166 19.8493199,9.93234508 C20.0283552,10.2931285 20.1775492,10.7596986 20.2969061,11.3320693 C20.416263,11.90444 20.4759406,12.5459738 20.4759406,13.25669 C20.4759406,14.0921885 20.2046789,14.8069629 19.6621474,15.4010349 C19.119616,15.9951068 18.4658754,16.2921384 17.700906,16.2921384 L10.7511127,16.2921384 C9.98614335,16.2921384 9.33240274,15.9951068 8.78987128,15.4010349 C8.24733981,14.8069629 7.97607815,14.0921885 7.97607815,13.25669 C7.97607815,12.5459738 8.03575572,11.90444 8.15511264,11.3320693 C8.27446956,10.7596986 8.42366347,10.2931285 8.60269886,9.93234508 C8.78173424,9.57156166 8.99738726,9.25825444 9.24966439,8.99241402 C9.50194152,8.7265736 9.7433644,8.52855259 9.97394027,8.39834504 C10.2045161,8.26813749 10.4472953,8.16505806 10.7022851,8.08910365 C10.2736853,7.41093932 10.0593886,6.6731076 10.0593886,5.87558635 C10.0593886,5.31135363 10.1692495,4.77289922 10.3889748,4.26020699 C10.6087,3.74751476 10.9057315,3.30400194 11.2800782,2.92965523 C11.654425,2.55530852 12.0979378,2.258277 12.61063,2.03855176 C13.1233222,1.81882651 13.6617766,1.70896554 14.2260094,1.70896554 C14.7902421,1.70896554 15.3286965,1.81882651 15.8413887,2.03855176 C16.3540809,2.258277 16.7975938,2.55530852 17.1719405,2.92965523 C17.5462872,3.30400194 17.8433187,3.74751476 18.063044,4.26020699 C18.2827692,4.77289922 18.3926302,5.31135363 18.3926302,5.87558635 C18.3926302,6.6731076 18.1783335,7.41093932 17.7497336,8.08910365 Z M16.4313887,3.67020697 C15.8237535,3.05714642 15.0886344,2.75062074 14.2260094,2.75062074 C13.3633843,2.75062074 12.6269089,3.05579011 12.016561,3.66613801 C11.4062131,4.27648591 11.1010438,5.01296132 11.1010438,5.87558635 C11.1010438,6.73821137 11.4062131,7.47468679 12.016561,8.08503469 C12.6269089,8.69538258 13.3633843,9.00055195 14.2260094,9.00055195 C15.0886344,9.00055195 15.8251098,8.69538258 16.4354577,8.08503469 C17.0458056,7.47468679 17.350975,6.73821137 17.350975,5.87558635 C17.350975,5.01296132 17.0444493,4.27784221 16.4313887,3.67020697 Z M17.700906,15.2504832 C18.1783337,15.2504832 18.5865825,15.0565311 18.9256647,14.6686211 C19.2647468,14.2807111 19.4342854,13.8100721 19.4342854,13.25669 C19.4342854,11.9600398 19.221345,10.9373833 18.7954578,10.1886899 C18.3695706,9.4399965 17.7578755,9.04666709 16.9603543,9.00868988 C16.1736836,9.69770484 15.2622445,10.0422072 14.2260094,10.0422072 C13.1897743,10.0422072 12.2783351,9.69770484 11.4916645,9.00868988 C10.6941432,9.04666709 10.0824482,9.4399965 9.65656096,10.1886899 C9.23067376,10.9373833 9.01773335,11.9600398 9.01773335,13.25669 C9.01773335,13.8100721 9.18727189,14.2807111 9.52635406,14.6686211 C9.86543622,15.0565311 10.273685,15.2504832 10.7511127,15.2504832 L17.700906,15.2504832 Z" id=""></path>
                            <path d="M8.39923503,5.48293111 C8.61836687,5.54820442 8.82700523,5.63678831 9.02515637,5.74868542 C9.22330751,5.86058253 9.43078029,6.03075684 9.64758095,6.25921345 C9.8643816,6.48767005 10.4746081,7.54748098 10.6284666,7.85752923 C10.7823252,8.16757748 8.56008961,12.532414 7.90269407,12.532414 L2.38479529,12.532414 C1.72739975,12.532414 1.16559143,12.2771525 0.699353458,11.7666219 C0.233115488,11.2560913 -2.82440737e-13,10.641832 -2.82440737e-13,9.92382556 C-2.82440737e-13,9.31305382 0.0512854074,8.76173569 0.153857761,8.26985464 C0.256430114,7.77797358 0.384643632,7.37701494 0.538502162,7.06696669 C0.692360692,6.75691844 0.877687505,6.48767005 1.09448816,6.25921345 C1.31128882,6.03075684 1.5187616,5.86058253 1.71691274,5.74868542 C1.91506388,5.63678831 2.12370224,5.54820442 2.34283408,5.48293111 C1.97450609,4.90013365 1.79034485,4.26605952 1.79034485,3.5806897 C1.79034485,3.09580221 1.88475662,2.63306797 2.073583,2.19247309 C2.26240938,1.75187821 2.51767084,1.37073439 2.83937504,1.04903019 C3.16107924,0.727325987 3.54222306,0.472064528 3.98281794,0.28323815 C4.42341282,0.0944117726 4.88614707,-1.20792265e-13 5.37103455,-1.20792265e-13 C5.85592204,-1.20792265e-13 6.31865629,0.0944117726 6.75925117,0.28323815 C7.19984605,0.472064528 7.58098987,0.727325987 7.90269407,1.04903019 C8.22439827,1.37073439 8.47965973,1.75187821 8.66848611,2.19247309 C8.85731248,2.63306797 8.95172426,3.09580221 8.95172426,3.5806897 C8.95172426,4.26605952 8.76756302,4.90013365 8.39923503,5.48293111 Z M7.26628242,1.68544183 C6.7440959,1.15859293 6.11235293,0.895172426 5.37103455,0.895172426 C4.62971618,0.895172426 3.99680763,1.15742735 3.47228992,1.68194507 C2.9477722,2.20646278 2.68551728,2.83937133 2.68551728,3.5806897 C2.68551728,4.32200807 2.9477722,4.95491662 3.47228992,5.47943434 C3.99680763,6.00395206 4.62971618,6.26620698 5.37103455,6.26620698 C6.11235293,6.26620698 6.74526148,6.00395206 7.26977919,5.47943434 C7.79429691,4.95491662 8.05655183,4.32200807 8.05655183,3.5806897 C8.05655183,2.83937133 7.79313133,2.20762836 7.26628242,1.68544183 Z M8.35727382,11.6372415 C8.76756323,11.6372415 8.78502334,11.1735067 9.07642207,10.8401466 C9.3678208,10.5067864 9.56173897,10.3993883 9.56173897,9.92382556 C9.56173897,8.80951682 9.66390102,7.93067143 9.29790422,7.28726303 C8.93190741,6.64385463 8.40623199,6.30583717 7.72086217,6.27320051 C7.04481712,6.86532274 6.26154908,7.16137941 5.37103455,7.16137941 C4.48052003,7.16137941 3.69725199,6.86532274 3.02120694,6.27320051 C2.33583712,6.30583717 1.8101617,6.64385463 1.44416489,7.28726303 C1.07816808,7.93067143 0.895172426,8.80951682 0.895172426,9.92382556 C0.895172426,10.3993883 1.04086961,10.8038437 1.33226834,11.1372038 C1.62366707,11.470564 1.97450588,11.6372415 2.38479529,11.6372415 L8.35727382,11.6372415 Z" id="-copy"></path>
                            <path d="M26.0613178,5.48293111 C26.2804497,5.54820442 26.489088,5.63678831 26.6872392,5.74868542 C26.8853903,5.86058253 27.0928631,6.03075684 27.3096638,6.25921345 C27.5264644,6.48767005 27.7117912,6.75691844 27.8656498,7.06696669 C28.0195083,7.37701494 28.1477218,7.77797358 28.2502942,8.26985464 C28.3528665,8.76173569 28.4041519,9.31305382 28.4041519,9.92382556 C28.4041519,10.641832 28.1710364,11.2560913 27.7047985,11.7666219 C27.2385605,12.2771525 26.6767522,12.532414 26.0193566,12.532414 L20.0468781,12.532414 C20.0468781,11.9231275 17.8159406,8.63241094 17.8159406,8.26985464 C17.8159406,7.90729834 18.0467264,7.37701494 18.200585,7.06696669 C18.3544435,6.75691844 18.5397703,6.48767005 18.756571,6.25921345 C18.9733716,6.03075684 19.1808444,5.86058253 19.3789955,5.74868542 C19.5771467,5.63678831 19.785785,5.54820442 20.0049169,5.48293111 C19.6365889,4.90013365 19.4524277,4.26605952 19.4524277,3.5806897 C19.4524277,3.09580221 19.5468394,2.63306797 19.7356658,2.19247309 C19.9244922,1.75187821 20.1797536,1.37073439 20.5014578,1.04903019 C20.823162,0.727325987 21.2043059,0.472064528 21.6449008,0.28323815 C22.0854956,0.0944117726 22.5482299,-1.20792265e-13 23.0331174,-1.20792265e-13 C23.5180049,-1.20792265e-13 23.9807391,0.0944117726 24.421334,0.28323815 C24.8619289,0.472064528 25.2430727,0.727325987 25.5647769,1.04903019 C25.8864811,1.37073439 26.1417425,1.75187821 26.3305689,2.19247309 C26.5193953,2.63306797 26.6138071,3.09580221 26.6138071,3.5806897 C26.6138071,4.26605952 26.4296458,4.90013365 26.0613178,5.48293111 Z M24.9283652,1.68544183 C24.4061787,1.15859293 23.7744357,0.895172426 23.0331174,0.895172426 C22.291799,0.895172426 21.6588904,1.15742735 21.1343727,1.68194507 C20.609855,2.20646278 20.3476001,2.83937133 20.3476001,3.5806897 C20.3476001,4.32200807 20.609855,4.95491662 21.1343727,5.47943434 C21.6588904,6.00395206 22.291799,6.26620698 23.0331174,6.26620698 C23.7744357,6.26620698 24.4073443,6.00395206 24.931862,5.47943434 C25.4563797,4.95491662 25.7186346,4.32200807 25.7186346,3.5806897 C25.7186346,2.83937133 25.4552141,2.20762836 24.9283652,1.68544183 Z M26.0193566,11.6372415 C26.429646,11.6372415 26.7804849,11.470564 27.0718836,11.1372038 C27.3632823,10.8038437 27.5089795,10.3993883 27.5089795,9.92382556 C27.5089795,8.80951682 27.3259838,7.93067143 26.959987,7.28726303 C26.5939902,6.64385463 26.0683148,6.30583717 25.382945,6.27320051 C24.7068999,6.86532274 23.9236319,7.16137941 23.0331174,7.16137941 C22.1426028,7.16137941 21.3593348,6.86532274 20.6832897,6.27320051 C19.9979199,6.30583717 19.4722445,6.64385463 19.1062477,7.28726303 C18.7402509,7.93067143 18.8388432,8.57966887 18.8388432,9.69397762 C18.8388432,10.1695403 19.007672,10.6634314 19.2990707,10.9967916 C19.5904695,11.3301517 19.6365887,11.6372415 20.0468781,11.6372415 L26.0193566,11.6372415 Z" id="-copy-2"></path>
                        </g>
                    </g>
                </g>
            </g>
        </g>
    </g>
</svg>