<svg xmlns="http://www.w3.org/2000/svg" xmlns:svg="http://www.w3.org/2000/svg" id="svg2" width="744.094" height="1052.362" version="1.1"><metadata id="metadata7"/><g id="layer1"><g id="g3804" transform="matrix(0.22273482,0,0,0.22273482,-2.0359162,-35.058475)"><path id="rect2989" d="m 174.3934,342.18261 c -1.95869,-1.95868 -4.74279,-2.04521 -6.56284,-0.50823 l -16.77169,16.77169 -7.77817,-7.77818 c -1.95869,-1.95868 -5.41382,-2.59501 -6.56283,-0.50823 l -20.79336,37.76392 c -1.14902,2.08678 -1.47255,4.62625 0.48613,6.58493 l 9.19239,9.19239 -25.23487,25.23488 c -1.684473,1.68446 -1.472553,4.62624 0.48613,6.58493 1.95869,1.95868 4.90047,2.1706 6.58493,0.48613 l 25.23488,-25.23487 9.19239,9.19239 c 1.95868,1.95868 4.49815,1.63515 6.58493,0.48613 l 37.76392,-20.79336 c 2.08678,-1.14901 1.45045,-4.60414 -0.50823,-6.56283 l -7.77818,-7.77817 16.77169,-16.77169 c 1.68447,-1.68447 1.45045,-4.60415 -0.50823,-6.56284 -1.95869,-1.95868 -4.87837,-2.1927 -6.56284,-0.50823 l -16.77169,16.77169 -12.72792,-12.72792 16.77169,-16.77169 c 1.68447,-1.68447 1.45045,-4.60415 -0.50823,-6.56284 z" style="fill:#000;fill-opacity:1;stroke:#000;stroke-width:13.4689312;stroke-miterlimit:4;stroke-dasharray:none"/><path id="rect3001" d="m 120.65328,260.15823 c -1.95868,-1.95869 -4.87836,-2.19271 -6.56283,-0.50824 l -0.99437,0.99437 c -1.68447,1.68447 -1.47255,4.62625 0.48614,6.58493 l 155.56349,155.56349 c 1.95868,1.95869 4.90046,2.17061 6.58493,0.48614 l 0.99437,-0.99437 c 1.68447,-1.68447 1.45045,-4.60415 -0.50824,-6.56283 z" style="fill:#000;fill-opacity:1;stroke:none"/><path id="rect2989-7" d="m 232.30305,346.49836 c 1.95869,1.95868 5.41382,2.59501 6.56283,0.50823 l 20.79336,-37.76392 c 1.14902,-2.08678 1.47255,-4.62625 -0.48613,-6.58493 l -9.19239,-9.19239 25.23487,-25.23488 c 1.68447,-1.68446 1.47255,-4.62624 -0.48613,-6.58493 -1.95869,-1.95868 -4.90047,-2.1706 -6.58493,-0.48613 l -25.23488,25.23487 -9.19239,-9.19239 c -1.95868,-1.95868 -4.49815,-1.63515 -6.58493,-0.48613 l -37.76392,20.79336 c -2.08678,1.14901 -1.45045,4.60414 0.50823,6.56283 z" style="fill:#000;fill-opacity:1;stroke:#000;stroke-width:13.4689312;stroke-miterlimit:4;stroke-dasharray:none"/></g></g></svg>